<svg width="1200" height="1000" viewBox="0 0 1200 1000" fill="none" xmlns="http://www.w3.org/2000/svg">
<g clip-path="url(#clip0_10_2)">
<rect width="1200" height="1000" fill="white"/>
<g opacity="0.9">
<path d="M649.488 230.356C649.488 419.676 931.781 494.336 931.781 494.336V43.7021C775.875 43.7021 649.488 105.916 649.488 230.356Z" fill="white"/>
<path d="M1214.07 230.356C1214.07 419.676 931.781 494.336 931.781 494.336V43.7021C1087.69 43.7021 1214.07 105.916 1214.07 230.356Z" fill="white"/>
</g>
<g opacity="0.9">
<path d="M1214.07 749.697C1214.07 560.376 931.781 485.714 931.781 485.714V936.35C1087.69 936.352 1214.07 874.136 1214.07 749.697Z" fill="white"/>
<path d="M649.488 749.697C649.488 560.376 931.781 485.714 931.781 485.714V936.35C775.875 936.352 649.488 874.136 649.488 749.697Z" fill="white"/>
</g>
<path d="M1135.76 128.363H727.799C698.559 128.363 674.856 109.444 674.856 86.1052C674.856 28.6855 733.716 -18.2944 805.655 -18.2944H1057.91C1129.85 -18.2944 1188.7 28.6855 1188.7 86.1052C1188.7 109.444 1165 128.363 1135.76 128.363Z" fill="#B3935B"/>
<path d="M727.799 863.023H1135.76C1165 863.023 1188.7 881.942 1188.7 905.281C1188.7 962.701 1129.85 1009.68 1057.91 1009.68H805.655C733.716 1009.68 674.856 962.701 674.856 905.281C674.856 881.942 698.559 863.023 727.799 863.023Z" fill="#B3935B"/>
<path d="M601.484 76.25H563.895V936.285H601.484V76.25Z" fill="white"/>
<path d="M1310.56 49.0031C1310.56 60.0171 1306.57 70.3075 1299.67 79.0056C1296.94 82.6278 1293.49 85.9619 1289.68 89.0057C1282.05 95.0912 1272.61 99.8767 1262.08 102.628C1255 104.658 1247.55 105.672 1239.56 105.672H623.998C623.092 105.672 622.182 105.672 621.273 105.529C614.374 105.384 607.656 104.37 601.481 102.628C585.682 98.5704 572.428 90.0217 563.892 79.0056C556.995 70.3075 553 60.0171 553 49.0031C553 24.3646 565.711 1.75396 586.048 -14.4768C606.567 -30.8547 634.529 -41 665.58 -41H1197.98C1213.96 -41 1229.03 -38.3916 1242.83 -33.4631C1268.79 -24.479 1289.68 -7.80862 1300.93 12.9152C1307.11 23.9292 1310.56 36.2495 1310.56 49.0031Z" fill="#172629"/>
<path d="M1310.56 945.997C1310.56 970.781 1297.85 993.246 1277.51 1009.62C1256.99 1025.85 1229.03 1036 1197.98 1036H665.58C658.68 1036 651.778 1035.42 645.242 1034.41C599.665 1027.88 563.349 998.898 554.998 962.375C553.727 957.011 553 951.649 553 945.997C553 934.981 556.995 924.545 563.895 915.851C566.799 912.227 570.067 908.895 573.88 905.849C581.507 899.762 590.95 895.123 601.481 892.37C608.562 890.342 616.008 889.326 623.998 889.326H1239.56C1247.55 889.326 1255 890.342 1262.08 892.37C1277.88 896.428 1291.13 904.835 1299.67 915.851C1306.57 924.545 1310.56 934.983 1310.56 945.997Z" fill="#172629"/>
<path d="M1163.15 303.684C1157.39 315.203 1150.24 326.417 1141.67 337.288C1120.44 364.265 1090.56 389.411 1052.86 412.024C1002.93 441.967 952.988 459.3 931.817 465.914C910.362 459.189 859.372 441.462 809.278 411.172C771.945 388.593 742.373 363.514 721.377 336.636C713.041 325.971 706.052 314.972 700.415 303.684H1163.15Z" fill="#A84F46"/>
<path d="M747.507 850.607C751.963 839.119 760.816 828.145 773.977 817.817C790.235 805.059 813.118 793.168 841.987 782.476C880.219 768.315 918.464 760.118 934.674 756.992C951.103 760.172 990.147 768.555 1028.51 782.88C1057.09 793.557 1079.74 805.417 1095.82 818.128C1108.76 828.364 1117.48 839.235 1121.89 850.609C1062.34 852.744 999.561 853.888 934.698 853.888C869.843 853.886 807.059 852.742 747.507 850.607Z" fill="#A84F46"/>
<path d="M943.469 462.039H925.93V801.999H943.469V462.039Z" fill="#A84F46"/>
<path opacity="0.07" d="M1286.6 915.811V79.0476C1286.61 79.0329 1286.63 79.0182 1286.64 79.0056C1293.54 70.3075 1297.53 60.0192 1297.53 49.0031C1297.53 36.2495 1294.08 23.9292 1287.91 12.9152C1276.65 -7.80863 1255.77 -24.479 1229.8 -33.4631C1216 -38.3916 1200.93 -41 1184.95 -41H918.756V1036H1184.95C1216 1036 1243.97 1025.85 1264.49 1009.62C1284.82 993.246 1297.53 970.781 1297.53 945.999C1297.53 934.983 1293.54 924.547 1286.64 915.854C1286.63 915.837 1286.61 915.826 1286.6 915.811ZM1249.12 892.395C1249.1 892.389 1249.08 892.378 1249.05 892.37C1241.97 890.342 1234.53 889.326 1226.54 889.326H1171.71C1167.01 880.136 1158.29 872.71 1147.38 868.091C1181 838.328 1201.05 798.972 1201.05 749.695C1201.05 586.161 990.561 508.234 933.18 490.022C990.561 471.812 1201.05 393.885 1201.05 230.351C1201.05 185.016 1184.12 148.041 1155.25 119.223C1161.11 115.556 1165.91 110.96 1169.4 105.668H1226.54C1234.53 105.668 1241.97 104.654 1249.05 102.624C1249.08 102.618 1249.1 102.605 1249.12 102.596V892.395Z" fill="#040000"/>
<path d="M50.8789 196V185.551H41.1914V196H32.7539V167.992H41.1914V178.363H50.8789V167.992H59.3164V196H50.8789ZM71.3086 188.363C71.4518 189.223 71.9466 189.9 72.793 190.395C73.6393 190.876 74.7591 191.117 76.1523 191.117C78.0924 191.117 79.9284 190.746 81.6602 190.004V195.277C79.6419 196.085 77.194 196.488 74.3164 196.488C70.8268 196.488 68.112 195.596 66.1719 193.812C64.2318 192.029 63.2617 189.574 63.2617 186.449C63.2617 184.301 63.6849 182.406 64.5312 180.766C65.3906 179.125 66.6536 177.842 68.3203 176.918C70 175.98 71.849 175.512 73.8672 175.512C75.9375 175.512 77.7083 175.915 79.1797 176.723C80.651 177.53 81.7643 178.663 82.5195 180.121C83.2878 181.579 83.6719 183.285 83.6719 185.238V188.363H71.3086ZM76.3086 184.008C76.3086 181.703 75.4818 180.551 73.8281 180.551C73.138 180.551 72.5586 180.87 72.0898 181.508C71.6211 182.133 71.3477 182.966 71.2695 184.008H76.3086ZM98.3398 182.152V196H90.0195V182.152H85.1758V176H103.164V182.152H98.3398ZM129.883 196V181.605H125.234V196H116.914V176H138.203V196H129.883ZM164.746 185.395C164.746 187.582 164.375 189.516 163.633 191.195C162.891 192.875 161.842 194.177 160.488 195.102C159.134 196.026 157.611 196.488 155.918 196.488C153.574 196.488 151.797 195.635 150.586 193.93H150.508V205.199H142.188V176H150.508V178.715H150.586C151.25 177.712 152.109 176.931 153.164 176.371C154.219 175.798 155.417 175.512 156.758 175.512C159.336 175.512 161.309 176.371 162.676 178.09C164.056 179.809 164.746 182.243 164.746 185.395ZM156.309 185.648C156.309 184.385 156.061 183.396 155.566 182.68C155.085 181.964 154.336 181.605 153.32 181.605C152.435 181.605 151.719 181.983 151.172 182.738C150.625 183.493 150.352 184.529 150.352 185.844V186.234C150.352 187.497 150.586 188.507 151.055 189.262C151.523 190.017 152.227 190.395 153.164 190.395C154.167 190.395 154.941 189.984 155.488 189.164C156.035 188.331 156.309 187.159 156.309 185.648ZM190.137 185.648C190.137 189.021 189.115 191.671 187.07 193.598C185.039 195.525 182.194 196.488 178.535 196.488C174.902 196.488 172.07 195.551 170.039 193.676C168.021 191.788 167.012 189.19 167.012 185.883C167.012 183.76 167.487 181.918 168.438 180.355C169.388 178.793 170.742 177.595 172.5 176.762C174.258 175.928 176.283 175.512 178.574 175.512C180.944 175.512 182.995 175.948 184.727 176.82C186.471 177.693 187.806 178.904 188.73 180.453C189.668 182.003 190.137 183.734 190.137 185.648ZM181.699 185.688C181.699 182.966 180.658 181.605 178.574 181.605C176.491 181.605 175.449 183.031 175.449 185.883C175.449 188.891 176.504 190.395 178.613 190.395C180.671 190.395 181.699 188.826 181.699 185.688ZM215.488 185.844C215.488 187.953 215.007 189.815 214.043 191.43C213.092 193.044 211.719 194.294 209.922 195.18C208.138 196.052 206.048 196.488 203.652 196.488C199.967 196.488 197.161 195.395 195.234 193.207C193.32 191.007 192.363 187.738 192.363 183.402C192.363 179.874 192.897 176.898 193.965 174.477C195.046 172.042 196.66 170.245 198.809 169.086C199.473 168.721 200.358 168.409 201.465 168.148C202.572 167.875 204.414 167.589 206.992 167.289C208.776 167.081 209.902 166.918 210.371 166.801C210.84 166.684 211.322 166.527 211.816 166.332C212.324 166.124 212.734 165.909 213.047 165.688V171.801C212.656 172.178 212.188 172.471 211.641 172.68C211.094 172.888 210.052 173.09 208.516 173.285C205.833 173.611 204.115 173.91 203.359 174.184C202.617 174.444 202.057 174.932 201.68 175.648C201.315 176.365 201.068 177.4 200.938 178.754H201.016C202.539 177.322 204.401 176.605 206.602 176.605C209.518 176.605 211.725 177.38 213.223 178.93C214.733 180.479 215.488 182.784 215.488 185.844ZM207.09 186.039C207.09 183.474 206.048 182.191 203.965 182.191C203.353 182.191 202.741 182.361 202.129 182.699C201.53 183.025 201.12 183.376 200.898 183.754C200.833 184.236 200.801 184.691 200.801 185.121V185.688C200.801 187.107 201.074 188.246 201.621 189.105C202.168 189.965 202.923 190.395 203.887 190.395C204.824 190.395 205.592 190.01 206.191 189.242C206.79 188.474 207.09 187.406 207.09 186.039ZM232.715 196V181.605H229.531C229.141 184.6 228.698 187.035 228.203 188.91C227.708 190.785 227.129 192.243 226.465 193.285C225.801 194.327 224.974 195.082 223.984 195.551C222.995 196.007 221.602 196.234 219.805 196.234C218.607 196.234 217.669 196.117 216.992 195.883V190.727C217.357 190.857 217.773 190.922 218.242 190.922C219.154 190.922 219.883 190.44 220.43 189.477C220.977 188.5 221.478 186.931 221.934 184.77C222.389 182.595 222.845 179.672 223.301 176H241.035V196H232.715ZM252.207 188.363C252.35 189.223 252.845 189.9 253.691 190.395C254.538 190.876 255.658 191.117 257.051 191.117C258.991 191.117 260.827 190.746 262.559 190.004V195.277C260.54 196.085 258.092 196.488 255.215 196.488C251.725 196.488 249.01 195.596 247.07 193.812C245.13 192.029 244.16 189.574 244.16 186.449C244.16 184.301 244.583 182.406 245.43 180.766C246.289 179.125 247.552 177.842 249.219 176.918C250.898 175.98 252.747 175.512 254.766 175.512C256.836 175.512 258.607 175.915 260.078 176.723C261.549 177.53 262.663 178.663 263.418 180.121C264.186 181.579 264.57 183.285 264.57 185.238V188.363H252.207ZM257.207 184.008C257.207 181.703 256.38 180.551 254.727 180.551C254.036 180.551 253.457 180.87 252.988 181.508C252.52 182.133 252.246 182.966 252.168 184.008H257.207ZM288.633 196V180.922C288.464 181.82 288.307 182.595 288.164 183.246C288.021 183.884 286.882 188.135 284.746 196H277.598L274.59 184.633C274.564 184.503 274.512 184.294 274.434 184.008C274.368 183.721 274.29 183.402 274.199 183.051C274.121 182.699 274.043 182.348 273.965 181.996C273.9 181.632 273.854 181.312 273.828 181.039V196H267.461V176H278.477L281.23 186.273C281.491 187.38 281.68 188.422 281.797 189.398C281.836 189.112 281.882 188.793 281.934 188.441C281.999 188.077 282.103 187.53 282.246 186.801C282.402 186.072 283.359 182.471 285.117 176H296.152V196H288.633ZM323.359 196V176H331.68V196H323.359ZM321.328 188.93C321.328 191.195 320.664 192.94 319.336 194.164C318.021 195.388 316.152 196 313.73 196H300.156V176H308.477V182.445H313.848C316.23 182.445 318.073 183.018 319.375 184.164C320.677 185.297 321.328 186.885 321.328 188.93ZM312.715 189.125C312.715 187.81 311.921 187.152 310.332 187.152H308.477V191.234H310.117C311.029 191.234 311.686 191.072 312.09 190.746C312.507 190.408 312.715 189.867 312.715 189.125Z" fill="#172629"/>
<path d="M50.8789 274V263.551H41.1914V274H32.7539V245.992H41.1914V256.363H50.8789V245.992H59.3164V274H50.8789ZM71.3086 266.363C71.4518 267.223 71.9466 267.9 72.793 268.395C73.6393 268.876 74.7591 269.117 76.1523 269.117C78.0924 269.117 79.9284 268.746 81.6602 268.004V273.277C79.6419 274.085 77.194 274.488 74.3164 274.488C70.8268 274.488 68.112 273.596 66.1719 271.812C64.2318 270.029 63.2617 267.574 63.2617 264.449C63.2617 262.301 63.6849 260.406 64.5312 258.766C65.3906 257.125 66.6536 255.842 68.3203 254.918C70 253.98 71.849 253.512 73.8672 253.512C75.9375 253.512 77.7083 253.915 79.1797 254.723C80.651 255.53 81.7643 256.663 82.5195 258.121C83.2878 259.579 83.6719 261.285 83.6719 263.238V266.363H71.3086ZM76.3086 262.008C76.3086 259.703 75.4818 258.551 73.8281 258.551C73.138 258.551 72.5586 258.87 72.0898 259.508C71.6211 260.133 71.3477 260.966 71.2695 262.008H76.3086ZM98.3398 260.152V274H90.0195V260.152H85.1758V254H103.164V260.152H98.3398ZM139.473 263.395C139.473 265.582 139.102 267.516 138.359 269.195C137.617 270.875 136.569 272.177 135.215 273.102C133.861 274.026 132.337 274.488 130.645 274.488C128.301 274.488 126.523 273.635 125.312 271.93H125.234V283.199H116.914V254H125.234V256.715H125.312C125.977 255.712 126.836 254.931 127.891 254.371C128.945 253.798 130.143 253.512 131.484 253.512C134.062 253.512 136.035 254.371 137.402 256.09C138.783 257.809 139.473 260.243 139.473 263.395ZM131.035 263.648C131.035 262.385 130.788 261.396 130.293 260.68C129.811 259.964 129.062 259.605 128.047 259.605C127.161 259.605 126.445 259.983 125.898 260.738C125.352 261.493 125.078 262.529 125.078 263.844V264.234C125.078 265.497 125.312 266.507 125.781 267.262C126.25 268.017 126.953 268.395 127.891 268.395C128.893 268.395 129.668 267.984 130.215 267.164C130.762 266.331 131.035 265.159 131.035 263.648ZM149.785 266.363C149.928 267.223 150.423 267.9 151.27 268.395C152.116 268.876 153.236 269.117 154.629 269.117C156.569 269.117 158.405 268.746 160.137 268.004V273.277C158.118 274.085 155.671 274.488 152.793 274.488C149.303 274.488 146.589 273.596 144.648 271.812C142.708 270.029 141.738 267.574 141.738 264.449C141.738 262.301 142.161 260.406 143.008 258.766C143.867 257.125 145.13 255.842 146.797 254.918C148.477 253.98 150.326 253.512 152.344 253.512C154.414 253.512 156.185 253.915 157.656 254.723C159.128 255.53 160.241 256.663 160.996 258.121C161.764 259.579 162.148 261.285 162.148 263.238V266.363H149.785ZM154.785 262.008C154.785 259.703 153.958 258.551 152.305 258.551C151.615 258.551 151.035 258.87 150.566 259.508C150.098 260.133 149.824 260.966 149.746 262.008H154.785ZM165.039 274V254H173.164V268.395H176.953V254H185.078V268.395H188.887V254H197.012V274H165.039ZM208.184 266.363C208.327 267.223 208.822 267.9 209.668 268.395C210.514 268.876 211.634 269.117 213.027 269.117C214.967 269.117 216.803 268.746 218.535 268.004V273.277C216.517 274.085 214.069 274.488 211.191 274.488C207.702 274.488 204.987 273.596 203.047 271.812C201.107 270.029 200.137 267.574 200.137 264.449C200.137 262.301 200.56 260.406 201.406 258.766C202.266 257.125 203.529 255.842 205.195 254.918C206.875 253.98 208.724 253.512 210.742 253.512C212.812 253.512 214.583 253.915 216.055 254.723C217.526 255.53 218.639 256.663 219.395 258.121C220.163 259.579 220.547 261.285 220.547 263.238V266.363H208.184ZM213.184 262.008C213.184 259.703 212.357 258.551 210.703 258.551C210.013 258.551 209.434 258.87 208.965 259.508C208.496 260.133 208.223 260.966 208.145 262.008H213.184ZM236.406 274V266.207H231.758V274H223.438V254H231.758V260.797H236.406V254H244.727V274H236.406ZM263.359 274V263.16C262.852 264.137 262.318 265.042 261.758 265.875L256.074 274H248.711V254H256.367V264.234C256.719 263.479 257.207 262.652 257.832 261.754L263.125 254H270.957V274H263.359ZM287.656 274V267.164H287.168C286.543 267.164 286.003 267.366 285.547 267.77C285.091 268.173 284.688 268.876 284.336 269.879L282.812 274H273.73L275.938 269C276.432 267.867 277.044 266.995 277.773 266.383C278.503 265.771 279.434 265.322 280.566 265.035C278.861 264.71 277.578 264.143 276.719 263.336C275.872 262.516 275.449 261.35 275.449 259.84C275.449 257.848 276.23 256.376 277.793 255.426C279.355 254.475 281.706 254 284.844 254H295.977V274H287.656ZM287.656 258.727H286.523C285.469 258.727 284.74 258.902 284.336 259.254C283.932 259.592 283.73 260.094 283.73 260.758C283.73 262.151 284.688 262.848 286.602 262.848H287.656V258.727Z" fill="#172629"/>
<path d="M53.5938 349.238C51.276 350.072 48.6003 350.488 45.5664 350.488C42.5846 350.488 40.013 349.922 37.8516 348.789C35.6901 347.643 34.0365 346.022 32.8906 343.926C31.7578 341.816 31.1914 339.388 31.1914 336.641C31.1914 333.685 31.8294 331.055 33.1055 328.75C34.3815 326.445 36.1849 324.668 38.5156 323.418C40.8464 322.155 43.5286 321.523 46.5625 321.523C48.9844 321.523 51.3281 321.816 53.5938 322.402V330.195C52.8125 329.727 51.8815 329.362 50.8008 329.102C49.7201 328.841 48.6263 328.711 47.5195 328.711C45.2279 328.711 43.418 329.368 42.0898 330.684C40.7747 331.999 40.1172 333.783 40.1172 336.035C40.1172 338.275 40.7747 340.046 42.0898 341.348C43.418 342.637 45.1888 343.281 47.4023 343.281C49.4466 343.281 51.5104 342.76 53.5938 341.719V349.238ZM79.7461 339.395C79.7461 341.582 79.375 343.516 78.6328 345.195C77.8906 346.875 76.8424 348.177 75.4883 349.102C74.1341 350.026 72.6107 350.488 70.918 350.488C68.5742 350.488 66.7969 349.635 65.5859 347.93H65.5078V359.199H57.1875V330H65.5078V332.715H65.5859C66.25 331.712 67.1094 330.931 68.1641 330.371C69.2188 329.798 70.4167 329.512 71.7578 329.512C74.3359 329.512 76.3086 330.371 77.6758 332.09C79.056 333.809 79.7461 336.243 79.7461 339.395ZM71.3086 339.648C71.3086 338.385 71.0612 337.396 70.5664 336.68C70.0846 335.964 69.3359 335.605 68.3203 335.605C67.4349 335.605 66.7188 335.983 66.1719 336.738C65.625 337.493 65.3516 338.529 65.3516 339.844V340.234C65.3516 341.497 65.5859 342.507 66.0547 343.262C66.5234 344.017 67.2266 344.395 68.1641 344.395C69.1667 344.395 69.9414 343.984 70.4883 343.164C71.0352 342.331 71.3086 341.159 71.3086 339.648ZM93.9844 350V346.953H93.9062C92.5781 349.31 90.5469 350.488 87.8125 350.488C85.9245 350.488 84.4466 349.928 83.3789 348.809C82.3112 347.689 81.7773 346.191 81.7773 344.316C81.7773 340.384 84.1927 338.105 89.0234 337.48L93.9844 336.836C93.9844 336.185 93.6914 335.651 93.1055 335.234C92.5195 334.818 91.7318 334.609 90.7422 334.609C88.5026 334.609 86.1393 335.247 83.6523 336.523V331.113C84.7331 330.645 86.0872 330.26 87.7148 329.961C89.3424 329.661 90.7357 329.512 91.8945 329.512C95.293 329.512 97.7539 330.241 99.2773 331.699C100.814 333.145 101.582 335.566 101.582 338.965V350H93.9844ZM89.0625 343.203C89.0625 343.75 89.2318 344.199 89.5703 344.551C89.9219 344.902 90.4167 345.078 91.0547 345.078C91.9271 345.078 92.6302 344.753 93.1641 344.102C93.7109 343.451 93.9844 342.617 93.9844 341.602V340.84L91.1719 341.23C89.7656 341.465 89.0625 342.122 89.0625 343.203ZM126.523 343.848C126.523 345.879 125.879 347.415 124.59 348.457C123.314 349.486 121.426 350 118.926 350H105.352V330H118.281C120.898 330 122.819 330.397 124.043 331.191C125.267 331.986 125.879 333.203 125.879 334.844C125.879 335.625 125.69 336.315 125.312 336.914C124.935 337.513 124.427 338.021 123.789 338.438C123.151 338.841 122.474 339.108 121.758 339.238C123.164 339.395 124.31 339.902 125.195 340.762C126.081 341.621 126.523 342.65 126.523 343.848ZM117.324 336.035C117.324 335.449 117.148 335.039 116.797 334.805C116.458 334.557 115.924 334.434 115.195 334.434H113.672V337.715H115.234C115.924 337.715 116.445 337.559 116.797 337.246C117.148 336.921 117.324 336.517 117.324 336.035ZM117.91 343.594C117.91 343.073 117.728 342.663 117.363 342.363C117.012 342.064 116.504 341.914 115.84 341.914H113.672V345.449H115.605C117.142 345.449 117.91 344.831 117.91 343.594ZM142.695 350V342.207H138.047V350H129.727V330H138.047V336.797H142.695V330H151.016V350H142.695ZM162.168 342.363C162.311 343.223 162.806 343.9 163.652 344.395C164.499 344.876 165.618 345.117 167.012 345.117C168.952 345.117 170.788 344.746 172.52 344.004V349.277C170.501 350.085 168.053 350.488 165.176 350.488C161.686 350.488 158.971 349.596 157.031 347.812C155.091 346.029 154.121 343.574 154.121 340.449C154.121 338.301 154.544 336.406 155.391 334.766C156.25 333.125 157.513 331.842 159.18 330.918C160.859 329.98 162.708 329.512 164.727 329.512C166.797 329.512 168.568 329.915 170.039 330.723C171.51 331.53 172.624 332.663 173.379 334.121C174.147 335.579 174.531 337.285 174.531 339.238V342.363H162.168ZM167.168 338.008C167.168 335.703 166.341 334.551 164.688 334.551C163.997 334.551 163.418 334.87 162.949 335.508C162.48 336.133 162.207 336.966 162.129 338.008H167.168ZM190.391 350V342.207H185.742V350H177.422V330H185.742V336.797H190.391V330H198.711V350H190.391ZM217.344 350V339.16C216.836 340.137 216.302 341.042 215.742 341.875L210.059 350H202.695V330H210.352V340.234C210.703 339.479 211.191 338.652 211.816 337.754L217.109 330H224.941V350H217.344ZM241.641 350V343.164H241.152C240.527 343.164 239.987 343.366 239.531 343.77C239.076 344.173 238.672 344.876 238.32 345.879L236.797 350H227.715L229.922 345C230.417 343.867 231.029 342.995 231.758 342.383C232.487 341.771 233.418 341.322 234.551 341.035C232.845 340.71 231.562 340.143 230.703 339.336C229.857 338.516 229.434 337.35 229.434 335.84C229.434 333.848 230.215 332.376 231.777 331.426C233.34 330.475 235.69 330 238.828 330H249.961V350H241.641ZM241.641 334.727H240.508C239.453 334.727 238.724 334.902 238.32 335.254C237.917 335.592 237.715 336.094 237.715 336.758C237.715 338.151 238.672 338.848 240.586 338.848H241.641V334.727ZM286.25 343.848C286.25 345.879 285.605 347.415 284.316 348.457C283.04 349.486 281.152 350 278.652 350H265.078V330H278.008C280.625 330 282.546 330.397 283.77 331.191C284.993 331.986 285.605 333.203 285.605 334.844C285.605 335.625 285.417 336.315 285.039 336.914C284.661 337.513 284.154 338.021 283.516 338.438C282.878 338.841 282.201 339.108 281.484 339.238C282.891 339.395 284.036 339.902 284.922 340.762C285.807 341.621 286.25 342.65 286.25 343.848ZM277.051 336.035C277.051 335.449 276.875 335.039 276.523 334.805C276.185 334.557 275.651 334.434 274.922 334.434H273.398V337.715H274.961C275.651 337.715 276.172 337.559 276.523 337.246C276.875 336.921 277.051 336.517 277.051 336.035ZM277.637 343.594C277.637 343.073 277.454 342.663 277.09 342.363C276.738 342.064 276.23 341.914 275.566 341.914H273.398V345.449H275.332C276.868 345.449 277.637 344.831 277.637 343.594ZM300.547 350V346.953H300.469C299.141 349.31 297.109 350.488 294.375 350.488C292.487 350.488 291.009 349.928 289.941 348.809C288.874 347.689 288.34 346.191 288.34 344.316C288.34 340.384 290.755 338.105 295.586 337.48L300.547 336.836C300.547 336.185 300.254 335.651 299.668 335.234C299.082 334.818 298.294 334.609 297.305 334.609C295.065 334.609 292.702 335.247 290.215 336.523V331.113C291.296 330.645 292.65 330.26 294.277 329.961C295.905 329.661 297.298 329.512 298.457 329.512C301.855 329.512 304.316 330.241 305.84 331.699C307.376 333.145 308.145 335.566 308.145 338.965V350H300.547ZM295.625 343.203C295.625 343.75 295.794 344.199 296.133 344.551C296.484 344.902 296.979 345.078 297.617 345.078C298.49 345.078 299.193 344.753 299.727 344.102C300.273 343.451 300.547 342.617 300.547 341.602V340.84L297.734 341.23C296.328 341.465 295.625 342.122 295.625 343.203ZM334.473 339.395C334.473 341.582 334.102 343.516 333.359 345.195C332.617 346.875 331.569 348.177 330.215 349.102C328.861 350.026 327.337 350.488 325.645 350.488C323.301 350.488 321.523 349.635 320.312 347.93H320.234V359.199H311.914V330H320.234V332.715H320.312C320.977 331.712 321.836 330.931 322.891 330.371C323.945 329.798 325.143 329.512 326.484 329.512C329.062 329.512 331.035 330.371 332.402 332.09C333.783 333.809 334.473 336.243 334.473 339.395ZM326.035 339.648C326.035 338.385 325.788 337.396 325.293 336.68C324.811 335.964 324.062 335.605 323.047 335.605C322.161 335.605 321.445 335.983 320.898 336.738C320.352 337.493 320.078 338.529 320.078 339.844V340.234C320.078 341.497 320.312 342.507 320.781 343.262C321.25 344.017 321.953 344.395 322.891 344.395C323.893 344.395 324.668 343.984 325.215 343.164C325.762 342.331 326.035 341.159 326.035 339.648ZM352.266 350V339.16C351.758 340.137 351.224 341.042 350.664 341.875L344.98 350H337.617V330H345.273V340.234C345.625 339.479 346.113 338.652 346.738 337.754L352.031 330H359.863V350H352.266ZM374.961 350V346.953H374.883C373.555 349.31 371.523 350.488 368.789 350.488C366.901 350.488 365.423 349.928 364.355 348.809C363.288 347.689 362.754 346.191 362.754 344.316C362.754 340.384 365.169 338.105 370 337.48L374.961 336.836C374.961 336.185 374.668 335.651 374.082 335.234C373.496 334.818 372.708 334.609 371.719 334.609C369.479 334.609 367.116 335.247 364.629 336.523V331.113C365.71 330.645 367.064 330.26 368.691 329.961C370.319 329.661 371.712 329.512 372.871 329.512C376.27 329.512 378.73 330.241 380.254 331.699C381.79 333.145 382.559 335.566 382.559 338.965V350H374.961ZM370.039 343.203C370.039 343.75 370.208 344.199 370.547 344.551C370.898 344.902 371.393 345.078 372.031 345.078C372.904 345.078 373.607 344.753 374.141 344.102C374.688 343.451 374.961 342.617 374.961 341.602V340.84L372.148 341.23C370.742 341.465 370.039 342.122 370.039 343.203ZM399.297 350V342.207H394.648V350H386.328V330H394.648V336.797H399.297V330H407.617V350H399.297ZM423.379 336.152V350H415.059V336.152H410.215V330H428.203V336.152H423.379ZM453.066 339.648C453.066 343.021 452.044 345.671 450 347.598C447.969 349.525 445.124 350.488 441.465 350.488C437.832 350.488 435 349.551 432.969 347.676C430.951 345.788 429.941 343.19 429.941 339.883C429.941 337.76 430.417 335.918 431.367 334.355C432.318 332.793 433.672 331.595 435.43 330.762C437.188 329.928 439.212 329.512 441.504 329.512C443.874 329.512 445.924 329.948 447.656 330.82C449.401 331.693 450.736 332.904 451.66 334.453C452.598 336.003 453.066 337.734 453.066 339.648ZM444.629 339.688C444.629 336.966 443.587 335.605 441.504 335.605C439.421 335.605 438.379 337.031 438.379 339.883C438.379 342.891 439.434 344.395 441.543 344.395C443.6 344.395 444.629 342.826 444.629 339.688ZM477.344 343.848C477.344 345.879 476.699 347.415 475.41 348.457C474.134 349.486 472.246 350 469.746 350H456.172V330H469.102C471.719 330 473.639 330.397 474.863 331.191C476.087 331.986 476.699 333.203 476.699 334.844C476.699 335.625 476.51 336.315 476.133 336.914C475.755 337.513 475.247 338.021 474.609 338.438C473.971 338.841 473.294 339.108 472.578 339.238C473.984 339.395 475.13 339.902 476.016 340.762C476.901 341.621 477.344 342.65 477.344 343.848ZM468.145 336.035C468.145 335.449 467.969 335.039 467.617 334.805C467.279 334.557 466.745 334.434 466.016 334.434H464.492V337.715H466.055C466.745 337.715 467.266 337.559 467.617 337.246C467.969 336.921 468.145 336.517 468.145 336.035ZM468.73 343.594C468.73 343.073 468.548 342.663 468.184 342.363C467.832 342.064 467.324 341.914 466.66 341.914H464.492V345.449H466.426C467.962 345.449 468.73 344.831 468.73 343.594Z" fill="#172629"/>
<path d="M51.9141 605V593.242C51.9141 591.523 51.9531 589.974 52.0312 588.594H51.9531C51.6927 589.036 51.3932 589.512 51.0547 590.02C50.7161 590.527 47.0833 595.521 40.1562 605H32.7539V576.992H40.5664V589.199C40.5664 590.71 40.5273 591.816 40.4492 592.52H40.5273C40.5794 592.402 40.6445 592.272 40.7227 592.129C40.8138 591.986 41.3346 591.224 42.2852 589.844L51.7578 576.992H59.7266V605H51.9141ZM80.9766 604.434C80.4427 604.746 79.6029 605 78.457 605.195C77.3112 605.391 75.9896 605.488 74.4922 605.488C72.3828 605.488 70.4948 605.065 68.8281 604.219C67.1745 603.359 65.8919 602.161 64.9805 600.625C64.069 599.089 63.6133 597.363 63.6133 595.449C63.6133 593.158 64.0951 591.198 65.0586 589.57C66.0352 587.93 67.4219 586.68 69.2188 585.82C71.0156 584.948 73.099 584.512 75.4688 584.512C76.7708 584.512 77.9362 584.596 78.9648 584.766C80.0065 584.935 80.6771 585.13 80.9766 585.352V591.836C80.5599 591.51 79.9609 591.224 79.1797 590.977C78.3984 590.729 77.6758 590.605 77.0117 590.605C75.3841 590.605 74.1471 590.996 73.3008 591.777C72.4674 592.546 72.0508 593.633 72.0508 595.039C72.0508 596.419 72.4609 597.493 73.2812 598.262C74.1146 599.017 75.2539 599.395 76.6992 599.395C78.2487 599.395 79.6745 599.023 80.9766 598.281V604.434ZM97.2656 605V590.605H92.6172V605H84.2969V585H105.586V605H97.2656ZM131.816 594.648C131.816 598.021 130.794 600.671 128.75 602.598C126.719 604.525 123.874 605.488 120.215 605.488C116.582 605.488 113.75 604.551 111.719 602.676C109.701 600.788 108.691 598.19 108.691 594.883C108.691 592.76 109.167 590.918 110.117 589.355C111.068 587.793 112.422 586.595 114.18 585.762C115.938 584.928 117.962 584.512 120.254 584.512C122.624 584.512 124.674 584.948 126.406 585.82C128.151 586.693 129.486 587.904 130.41 589.453C131.348 591.003 131.816 592.734 131.816 594.648ZM123.379 594.688C123.379 591.966 122.337 590.605 120.254 590.605C118.171 590.605 117.129 592.031 117.129 594.883C117.129 597.891 118.184 599.395 120.293 599.395C122.35 599.395 123.379 597.826 123.379 594.688ZM149.043 605V590.605H145.859C145.469 593.6 145.026 596.035 144.531 597.91C144.036 599.785 143.457 601.243 142.793 602.285C142.129 603.327 141.302 604.082 140.312 604.551C139.323 605.007 137.93 605.234 136.133 605.234C134.935 605.234 133.997 605.117 133.32 604.883V599.727C133.685 599.857 134.102 599.922 134.57 599.922C135.482 599.922 136.211 599.44 136.758 598.477C137.305 597.5 137.806 595.931 138.262 593.77C138.717 591.595 139.173 588.672 139.629 585H157.363V605H149.043ZM182.539 597.93C182.539 600.195 181.875 601.94 180.547 603.164C179.232 604.388 177.363 605 174.941 605H161.367V585H169.688V591.445H175.059C177.441 591.445 179.284 592.018 180.586 593.164C181.888 594.297 182.539 595.885 182.539 597.93ZM173.926 598.125C173.926 596.81 173.132 596.152 171.543 596.152H169.688V600.234H171.328C172.24 600.234 172.897 600.072 173.301 599.746C173.717 599.408 173.926 598.867 173.926 598.125ZM202.676 599.16C202.676 600.684 202.259 601.888 201.426 602.773C200.592 603.646 199.349 604.297 197.695 604.727C196.042 605.143 193.984 605.352 191.523 605.352C189.271 605.352 187.057 605.046 184.883 604.434V599.277C186.81 600.02 188.633 600.391 190.352 600.391C191.68 600.391 192.624 600.273 193.184 600.039C193.757 599.792 194.043 599.382 194.043 598.809C194.043 598.132 193.789 597.663 193.281 597.402C192.786 597.129 191.842 596.992 190.449 596.992H186.602V592.559H190.527C191.66 592.559 192.454 592.428 192.91 592.168C193.366 591.908 193.594 591.465 193.594 590.84C193.594 590.319 193.353 589.948 192.871 589.727C192.389 589.505 191.595 589.395 190.488 589.395C188.939 589.395 187.324 589.688 185.645 590.273V585.449C187.988 584.824 190.254 584.512 192.441 584.512C195.892 584.512 198.385 584.928 199.922 585.762C201.471 586.582 202.246 587.943 202.246 589.844C202.246 591.055 201.81 592.077 200.938 592.91C200.065 593.73 198.796 594.277 197.129 594.551V594.609C198.9 594.74 200.267 595.208 201.23 596.016C202.194 596.81 202.676 597.858 202.676 599.16ZM228.145 594.648C228.145 598.021 227.122 600.671 225.078 602.598C223.047 604.525 220.202 605.488 216.543 605.488C212.91 605.488 210.078 604.551 208.047 602.676C206.029 600.788 205.02 598.19 205.02 594.883C205.02 592.76 205.495 590.918 206.445 589.355C207.396 587.793 208.75 586.595 210.508 585.762C212.266 584.928 214.29 584.512 216.582 584.512C218.952 584.512 221.003 584.948 222.734 585.82C224.479 586.693 225.814 587.904 226.738 589.453C227.676 591.003 228.145 592.734 228.145 594.648ZM219.707 594.688C219.707 591.966 218.665 590.605 216.582 590.605C214.499 590.605 213.457 592.031 213.457 594.883C213.457 597.891 214.512 599.395 216.621 599.395C218.678 599.395 219.707 597.826 219.707 594.688ZM252.422 598.848C252.422 600.879 251.777 602.415 250.488 603.457C249.212 604.486 247.324 605 244.824 605H231.25V585H244.18C246.797 585 248.717 585.397 249.941 586.191C251.165 586.986 251.777 588.203 251.777 589.844C251.777 590.625 251.589 591.315 251.211 591.914C250.833 592.513 250.326 593.021 249.688 593.438C249.049 593.841 248.372 594.108 247.656 594.238C249.062 594.395 250.208 594.902 251.094 595.762C251.979 596.621 252.422 597.65 252.422 598.848ZM243.223 591.035C243.223 590.449 243.047 590.039 242.695 589.805C242.357 589.557 241.823 589.434 241.094 589.434H239.57V592.715H241.133C241.823 592.715 242.344 592.559 242.695 592.246C243.047 591.921 243.223 591.517 243.223 591.035ZM243.809 598.594C243.809 598.073 243.626 597.663 243.262 597.363C242.91 597.064 242.402 596.914 241.738 596.914H239.57V600.449H241.504C243.04 600.449 243.809 599.831 243.809 598.594ZM266.719 605V601.953H266.641C265.312 604.31 263.281 605.488 260.547 605.488C258.659 605.488 257.181 604.928 256.113 603.809C255.046 602.689 254.512 601.191 254.512 599.316C254.512 595.384 256.927 593.105 261.758 592.48L266.719 591.836C266.719 591.185 266.426 590.651 265.84 590.234C265.254 589.818 264.466 589.609 263.477 589.609C261.237 589.609 258.874 590.247 256.387 591.523V586.113C257.467 585.645 258.822 585.26 260.449 584.961C262.077 584.661 263.47 584.512 264.629 584.512C268.027 584.512 270.488 585.241 272.012 586.699C273.548 588.145 274.316 590.566 274.316 593.965V605H266.719ZM261.797 598.203C261.797 598.75 261.966 599.199 262.305 599.551C262.656 599.902 263.151 600.078 263.789 600.078C264.661 600.078 265.365 599.753 265.898 599.102C266.445 598.451 266.719 597.617 266.719 596.602V595.84L263.906 596.23C262.5 596.465 261.797 597.122 261.797 598.203ZM291.055 605V597.207H286.406V605H278.086V585H286.406V591.797H291.055V585H299.375V605H291.055ZM318.008 605V594.16C317.5 595.137 316.966 596.042 316.406 596.875L310.723 605H303.359V585H311.016V595.234C311.367 594.479 311.855 593.652 312.48 592.754L317.773 585H325.605V605H318.008ZM336.777 597.363C336.921 598.223 337.415 598.9 338.262 599.395C339.108 599.876 340.228 600.117 341.621 600.117C343.561 600.117 345.397 599.746 347.129 599.004V604.277C345.111 605.085 342.663 605.488 339.785 605.488C336.296 605.488 333.581 604.596 331.641 602.812C329.701 601.029 328.73 598.574 328.73 595.449C328.73 593.301 329.154 591.406 330 589.766C330.859 588.125 332.122 586.842 333.789 585.918C335.469 584.98 337.318 584.512 339.336 584.512C341.406 584.512 343.177 584.915 344.648 585.723C346.12 586.53 347.233 587.663 347.988 589.121C348.757 590.579 349.141 592.285 349.141 594.238V597.363H336.777ZM341.777 593.008C341.777 590.703 340.951 589.551 339.297 589.551C338.607 589.551 338.027 589.87 337.559 590.508C337.09 591.133 336.816 591.966 336.738 593.008H341.777ZM376.133 605V590.605H371.484V605H363.164V585H384.453V605H376.133ZM410.996 594.395C410.996 596.582 410.625 598.516 409.883 600.195C409.141 601.875 408.092 603.177 406.738 604.102C405.384 605.026 403.861 605.488 402.168 605.488C399.824 605.488 398.047 604.635 396.836 602.93H396.758V614.199H388.438V585H396.758V587.715H396.836C397.5 586.712 398.359 585.931 399.414 585.371C400.469 584.798 401.667 584.512 403.008 584.512C405.586 584.512 407.559 585.371 408.926 587.09C410.306 588.809 410.996 591.243 410.996 594.395ZM402.559 594.648C402.559 593.385 402.311 592.396 401.816 591.68C401.335 590.964 400.586 590.605 399.57 590.605C398.685 590.605 397.969 590.983 397.422 591.738C396.875 592.493 396.602 593.529 396.602 594.844V595.234C396.602 596.497 396.836 597.507 397.305 598.262C397.773 599.017 398.477 599.395 399.414 599.395C400.417 599.395 401.191 598.984 401.738 598.164C402.285 597.331 402.559 596.159 402.559 594.648ZM436.387 594.648C436.387 598.021 435.365 600.671 433.32 602.598C431.289 604.525 428.444 605.488 424.785 605.488C421.152 605.488 418.32 604.551 416.289 602.676C414.271 600.788 413.262 598.19 413.262 594.883C413.262 592.76 413.737 590.918 414.688 589.355C415.638 587.793 416.992 586.595 418.75 585.762C420.508 584.928 422.533 584.512 424.824 584.512C427.194 584.512 429.245 584.948 430.977 585.82C432.721 586.693 434.056 587.904 434.98 589.453C435.918 591.003 436.387 592.734 436.387 594.648ZM427.949 594.688C427.949 591.966 426.908 590.605 424.824 590.605C422.741 590.605 421.699 592.031 421.699 594.883C421.699 597.891 422.754 599.395 424.863 599.395C426.921 599.395 427.949 597.826 427.949 594.688ZM457.168 612.285V605H444.648V612.285H438.105V599.395H439.824C441.1 597.168 442.044 594.896 442.656 592.578C443.281 590.26 443.659 587.734 443.789 585H460.547V599.395H463.828V612.285H457.168ZM452.266 590.391H449.98C449.746 593.633 448.932 596.634 447.539 599.395H452.266V590.391ZM470.293 614.395C469.512 614.395 468.672 614.323 467.773 614.18C466.875 614.049 466.074 613.854 465.371 613.594V607.324C465.697 607.572 466.178 607.799 466.816 608.008C467.467 608.216 468.079 608.32 468.652 608.32C470.202 608.32 471.23 607.708 471.738 606.484L472.383 604.922L464.023 585H473.223L475.645 594.648C476.113 596.445 476.367 597.656 476.406 598.281H476.484C476.523 597.995 476.576 597.676 476.641 597.324C476.719 596.973 477.734 592.865 479.688 585H487.773L480.41 605.566C479.303 608.717 477.93 610.977 476.289 612.344C474.661 613.711 472.663 614.395 470.293 614.395ZM502.227 605L497.773 594.727H497.695V605H489.375V585H497.695V594.395H497.773L501.816 585H511.191L505.781 594.16L511.504 605H502.227ZM524.863 591.152V605H516.543V591.152H511.699V585H529.688V591.152H524.863ZM543.398 605V601.953H543.32C541.992 604.31 539.961 605.488 537.227 605.488C535.339 605.488 533.861 604.928 532.793 603.809C531.725 602.689 531.191 601.191 531.191 599.316C531.191 595.384 533.607 593.105 538.438 592.48L543.398 591.836C543.398 591.185 543.105 590.651 542.52 590.234C541.934 589.818 541.146 589.609 540.156 589.609C537.917 589.609 535.553 590.247 533.066 591.523V586.113C534.147 585.645 535.501 585.26 537.129 584.961C538.757 584.661 540.15 584.512 541.309 584.512C544.707 584.512 547.168 585.241 548.691 586.699C550.228 588.145 550.996 590.566 550.996 593.965V605H543.398ZM538.477 598.203C538.477 598.75 538.646 599.199 538.984 599.551C539.336 599.902 539.831 600.078 540.469 600.078C541.341 600.078 542.044 599.753 542.578 599.102C543.125 598.451 543.398 597.617 543.398 596.602V595.84L540.586 596.23C539.18 596.465 538.477 597.122 538.477 598.203Z" fill="#172629"/>
<path d="M50.8789 682V661.16H41.1914V682H32.7539V653.992H59.3164V682H50.8789ZM86.3086 671.648C86.3086 675.021 85.2865 677.671 83.2422 679.598C81.2109 681.525 78.3659 682.488 74.707 682.488C71.0742 682.488 68.2422 681.551 66.2109 679.676C64.1927 677.788 63.1836 675.19 63.1836 671.883C63.1836 669.76 63.6589 667.918 64.6094 666.355C65.5599 664.793 66.9141 663.595 68.6719 662.762C70.4297 661.928 72.4544 661.512 74.7461 661.512C77.1159 661.512 79.1667 661.948 80.8984 662.82C82.6432 663.693 83.9779 664.904 84.9023 666.453C85.8398 668.003 86.3086 669.734 86.3086 671.648ZM77.8711 671.688C77.8711 668.966 76.8294 667.605 74.7461 667.605C72.6628 667.605 71.6211 669.031 71.6211 671.883C71.6211 674.891 72.6758 676.395 74.7852 676.395C76.8424 676.395 77.8711 674.826 77.8711 671.688ZM105.898 681.434C105.365 681.746 104.525 682 103.379 682.195C102.233 682.391 100.911 682.488 99.4141 682.488C97.3047 682.488 95.4167 682.065 93.75 681.219C92.0964 680.359 90.8138 679.161 89.9023 677.625C88.9909 676.089 88.5352 674.363 88.5352 672.449C88.5352 670.158 89.0169 668.198 89.9805 666.57C90.957 664.93 92.3438 663.68 94.1406 662.82C95.9375 661.948 98.0208 661.512 100.391 661.512C101.693 661.512 102.858 661.596 103.887 661.766C104.928 661.935 105.599 662.13 105.898 662.352V668.836C105.482 668.51 104.883 668.224 104.102 667.977C103.32 667.729 102.598 667.605 101.934 667.605C100.306 667.605 99.069 667.996 98.2227 668.777C97.3893 669.546 96.9727 670.633 96.9727 672.039C96.9727 673.419 97.3828 674.493 98.2031 675.262C99.0365 676.017 100.176 676.395 101.621 676.395C103.171 676.395 104.596 676.023 105.898 675.281V681.434ZM120.996 668.152V682H112.676V668.152H107.832V662H125.82V668.152H120.996ZM129.238 674.324V668.719H139.922V674.324H129.238ZM157.695 682V667.605H153.047V682H144.727V662H166.016V682H157.695ZM192.559 671.395C192.559 673.582 192.188 675.516 191.445 677.195C190.703 678.875 189.655 680.177 188.301 681.102C186.947 682.026 185.423 682.488 183.73 682.488C181.387 682.488 179.609 681.635 178.398 679.93H178.32V691.199H170V662H178.32V664.715H178.398C179.062 663.712 179.922 662.931 180.977 662.371C182.031 661.798 183.229 661.512 184.57 661.512C187.148 661.512 189.121 662.371 190.488 664.09C191.868 665.809 192.559 668.243 192.559 671.395ZM184.121 671.648C184.121 670.385 183.874 669.396 183.379 668.68C182.897 667.964 182.148 667.605 181.133 667.605C180.247 667.605 179.531 667.983 178.984 668.738C178.438 669.493 178.164 670.529 178.164 671.844V672.234C178.164 673.497 178.398 674.507 178.867 675.262C179.336 676.017 180.039 676.395 180.977 676.395C181.979 676.395 182.754 675.984 183.301 675.164C183.848 674.331 184.121 673.159 184.121 671.648ZM217.949 671.648C217.949 675.021 216.927 677.671 214.883 679.598C212.852 681.525 210.007 682.488 206.348 682.488C202.715 682.488 199.883 681.551 197.852 679.676C195.833 677.788 194.824 675.19 194.824 671.883C194.824 669.76 195.299 667.918 196.25 666.355C197.201 664.793 198.555 663.595 200.312 662.762C202.07 661.928 204.095 661.512 206.387 661.512C208.757 661.512 210.807 661.948 212.539 662.82C214.284 663.693 215.618 664.904 216.543 666.453C217.48 668.003 217.949 669.734 217.949 671.648ZM209.512 671.688C209.512 668.966 208.47 667.605 206.387 667.605C204.303 667.605 203.262 669.031 203.262 671.883C203.262 674.891 204.316 676.395 206.426 676.395C208.483 676.395 209.512 674.826 209.512 671.688ZM238.73 689.285V682H226.211V689.285H219.668V676.395H221.387C222.663 674.168 223.607 671.896 224.219 669.578C224.844 667.26 225.221 664.734 225.352 662H242.109V676.395H245.391V689.285H238.73ZM233.828 667.391H231.543C231.309 670.633 230.495 673.634 229.102 676.395H233.828V667.391ZM259.062 682V678.953H258.984C257.656 681.31 255.625 682.488 252.891 682.488C251.003 682.488 249.525 681.928 248.457 680.809C247.389 679.689 246.855 678.191 246.855 676.316C246.855 672.384 249.271 670.105 254.102 669.48L259.062 668.836C259.062 668.185 258.77 667.651 258.184 667.234C257.598 666.818 256.81 666.609 255.82 666.609C253.581 666.609 251.217 667.247 248.73 668.523V663.113C249.811 662.645 251.165 662.26 252.793 661.961C254.421 661.661 255.814 661.512 256.973 661.512C260.371 661.512 262.832 662.241 264.355 663.699C265.892 665.145 266.66 667.566 266.66 670.965V682H259.062ZM254.141 675.203C254.141 675.75 254.31 676.199 254.648 676.551C255 676.902 255.495 677.078 256.133 677.078C257.005 677.078 257.708 676.753 258.242 676.102C258.789 675.451 259.062 674.617 259.062 673.602V672.84L256.25 673.23C254.844 673.465 254.141 674.122 254.141 675.203ZM293.848 682L289.531 671.961H289.453V682H281.523V671.961H281.445L277.168 682H268.262L274.023 671.395L268.32 662H276.992L281.445 671.648H281.523V662H289.453V671.648H289.531L293.965 662H302.637L296.934 671.395L302.734 682H293.848ZM317.5 682V674.207H312.852V682H304.531V662H312.852V668.797H317.5V662H325.82V682H317.5ZM352.051 671.648C352.051 675.021 351.029 677.671 348.984 679.598C346.953 681.525 344.108 682.488 340.449 682.488C336.816 682.488 333.984 681.551 331.953 679.676C329.935 677.788 328.926 675.19 328.926 671.883C328.926 669.76 329.401 667.918 330.352 666.355C331.302 664.793 332.656 663.595 334.414 662.762C336.172 661.928 338.197 661.512 340.488 661.512C342.858 661.512 344.909 661.948 346.641 662.82C348.385 663.693 349.72 664.904 350.645 666.453C351.582 668.003 352.051 669.734 352.051 671.648ZM343.613 671.688C343.613 668.966 342.572 667.605 340.488 667.605C338.405 667.605 337.363 669.031 337.363 671.883C337.363 674.891 338.418 676.395 340.527 676.395C342.585 676.395 343.613 674.826 343.613 671.688ZM362.324 674.363C362.467 675.223 362.962 675.9 363.809 676.395C364.655 676.876 365.775 677.117 367.168 677.117C369.108 677.117 370.944 676.746 372.676 676.004V681.277C370.658 682.085 368.21 682.488 365.332 682.488C361.842 682.488 359.128 681.596 357.188 679.812C355.247 678.029 354.277 675.574 354.277 672.449C354.277 670.301 354.701 668.406 355.547 666.766C356.406 665.125 357.669 663.842 359.336 662.918C361.016 661.98 362.865 661.512 364.883 661.512C366.953 661.512 368.724 661.915 370.195 662.723C371.667 663.53 372.78 664.663 373.535 666.121C374.303 667.579 374.688 669.285 374.688 671.238V674.363H362.324ZM367.324 670.008C367.324 667.703 366.497 666.551 364.844 666.551C364.154 666.551 363.574 666.87 363.105 667.508C362.637 668.133 362.363 668.966 362.285 670.008H367.324ZM410.957 671.648C410.957 675.021 409.935 677.671 407.891 679.598C405.859 681.525 403.014 682.488 399.355 682.488C395.723 682.488 392.891 681.551 390.859 679.676C388.841 677.788 387.832 675.19 387.832 671.883C387.832 669.76 388.307 667.918 389.258 666.355C390.208 664.793 391.562 663.595 393.32 662.762C395.078 661.928 397.103 661.512 399.395 661.512C401.764 661.512 403.815 661.948 405.547 662.82C407.292 663.693 408.626 664.904 409.551 666.453C410.488 668.003 410.957 669.734 410.957 671.648ZM402.52 671.688C402.52 668.966 401.478 667.605 399.395 667.605C397.311 667.605 396.27 669.031 396.27 671.883C396.27 674.891 397.324 676.395 399.434 676.395C401.491 676.395 402.52 674.826 402.52 671.688ZM436.309 671.844C436.309 673.953 435.827 675.815 434.863 677.43C433.913 679.044 432.539 680.294 430.742 681.18C428.958 682.052 426.868 682.488 424.473 682.488C420.788 682.488 417.982 681.395 416.055 679.207C414.141 677.007 413.184 673.738 413.184 669.402C413.184 665.874 413.717 662.898 414.785 660.477C415.866 658.042 417.48 656.245 419.629 655.086C420.293 654.721 421.178 654.409 422.285 654.148C423.392 653.875 425.234 653.589 427.812 653.289C429.596 653.081 430.723 652.918 431.191 652.801C431.66 652.684 432.142 652.527 432.637 652.332C433.145 652.124 433.555 651.909 433.867 651.688V657.801C433.477 658.178 433.008 658.471 432.461 658.68C431.914 658.888 430.872 659.09 429.336 659.285C426.654 659.611 424.935 659.91 424.18 660.184C423.438 660.444 422.878 660.932 422.5 661.648C422.135 662.365 421.888 663.4 421.758 664.754H421.836C423.359 663.322 425.221 662.605 427.422 662.605C430.339 662.605 432.546 663.38 434.043 664.93C435.553 666.479 436.309 668.784 436.309 671.844ZM427.91 672.039C427.91 669.474 426.868 668.191 424.785 668.191C424.173 668.191 423.561 668.361 422.949 668.699C422.35 669.025 421.94 669.376 421.719 669.754C421.654 670.236 421.621 670.691 421.621 671.121V671.688C421.621 673.107 421.895 674.246 422.441 675.105C422.988 675.965 423.743 676.395 424.707 676.395C425.645 676.395 426.413 676.01 427.012 675.242C427.611 674.474 427.91 673.406 427.91 672.039ZM455.898 681.434C455.365 681.746 454.525 682 453.379 682.195C452.233 682.391 450.911 682.488 449.414 682.488C447.305 682.488 445.417 682.065 443.75 681.219C442.096 680.359 440.814 679.161 439.902 677.625C438.991 676.089 438.535 674.363 438.535 672.449C438.535 670.158 439.017 668.198 439.98 666.57C440.957 664.93 442.344 663.68 444.141 662.82C445.938 661.948 448.021 661.512 450.391 661.512C451.693 661.512 452.858 661.596 453.887 661.766C454.928 661.935 455.599 662.13 455.898 662.352V668.836C455.482 668.51 454.883 668.224 454.102 667.977C453.32 667.729 452.598 667.605 451.934 667.605C450.306 667.605 449.069 667.996 448.223 668.777C447.389 669.546 446.973 670.633 446.973 672.039C446.973 673.419 447.383 674.493 448.203 675.262C449.036 676.017 450.176 676.395 451.621 676.395C453.171 676.395 454.596 676.023 455.898 675.281V681.434ZM473.34 682V667.605H470.156C469.766 670.6 469.323 673.035 468.828 674.91C468.333 676.785 467.754 678.243 467.09 679.285C466.426 680.327 465.599 681.082 464.609 681.551C463.62 682.007 462.227 682.234 460.43 682.234C459.232 682.234 458.294 682.117 457.617 681.883V676.727C457.982 676.857 458.398 676.922 458.867 676.922C459.779 676.922 460.508 676.44 461.055 675.477C461.602 674.5 462.103 672.931 462.559 670.77C463.014 668.595 463.47 665.672 463.926 662H481.66V682H473.34ZM489.551 691.395C488.77 691.395 487.93 691.323 487.031 691.18C486.133 691.049 485.332 690.854 484.629 690.594V684.324C484.954 684.572 485.436 684.799 486.074 685.008C486.725 685.216 487.337 685.32 487.91 685.32C489.46 685.32 490.488 684.708 490.996 683.484L491.641 681.922L483.281 662H492.48L494.902 671.648C495.371 673.445 495.625 674.656 495.664 675.281H495.742C495.781 674.995 495.833 674.676 495.898 674.324C495.977 673.973 496.992 669.865 498.945 662H507.031L499.668 682.566C498.561 685.717 497.188 687.977 495.547 689.344C493.919 690.711 491.921 691.395 489.551 691.395ZM532.051 682L527.734 671.961H527.656V682H519.727V671.961H519.648L515.371 682H506.465L512.227 671.395L506.523 662H515.195L519.648 671.648H519.727V662H527.656V671.648H527.734L532.168 662H540.84L535.137 671.395L540.938 682H532.051ZM557.383 682V671.16C556.875 672.137 556.341 673.042 555.781 673.875L550.098 682H542.734V662H550.391V672.234C550.742 671.479 551.23 670.652 551.855 669.754L557.148 662H564.98V682H557.383ZM590.156 675.848C590.156 677.879 589.512 679.415 588.223 680.457C586.947 681.486 585.059 682 582.559 682H568.984V662H581.914C584.531 662 586.452 662.397 587.676 663.191C588.9 663.986 589.512 665.203 589.512 666.844C589.512 667.625 589.323 668.315 588.945 668.914C588.568 669.513 588.06 670.021 587.422 670.438C586.784 670.841 586.107 671.108 585.391 671.238C586.797 671.395 587.943 671.902 588.828 672.762C589.714 673.621 590.156 674.65 590.156 675.848ZM580.957 668.035C580.957 667.449 580.781 667.039 580.43 666.805C580.091 666.557 579.557 666.434 578.828 666.434H577.305V669.715H578.867C579.557 669.715 580.078 669.559 580.43 669.246C580.781 668.921 580.957 668.517 580.957 668.035ZM581.543 675.594C581.543 675.073 581.361 674.663 580.996 674.363C580.645 674.064 580.137 673.914 579.473 673.914H577.305V677.449H579.238C580.775 677.449 581.543 676.831 581.543 675.594ZM604.453 682V678.953H604.375C603.047 681.31 601.016 682.488 598.281 682.488C596.393 682.488 594.915 681.928 593.848 680.809C592.78 679.689 592.246 678.191 592.246 676.316C592.246 672.384 594.661 670.105 599.492 669.48L604.453 668.836C604.453 668.185 604.16 667.651 603.574 667.234C602.988 666.818 602.201 666.609 601.211 666.609C598.971 666.609 596.608 667.247 594.121 668.523V663.113C595.202 662.645 596.556 662.26 598.184 661.961C599.811 661.661 601.204 661.512 602.363 661.512C605.762 661.512 608.223 662.241 609.746 663.699C611.283 665.145 612.051 667.566 612.051 670.965V682H604.453ZM599.531 675.203C599.531 675.75 599.701 676.199 600.039 676.551C600.391 676.902 600.885 677.078 601.523 677.078C602.396 677.078 603.099 676.753 603.633 676.102C604.18 675.451 604.453 674.617 604.453 673.602V672.84L601.641 673.23C600.234 673.465 599.531 674.122 599.531 675.203ZM628.789 682V674.207H624.141V682H615.82V662H624.141V668.797H628.789V662H637.109V682H628.789ZM655.742 682V671.16C655.234 672.137 654.701 673.042 654.141 673.875L648.457 682H641.094V662H648.75V672.234C649.102 671.479 649.59 670.652 650.215 669.754L655.508 662H663.34V682H655.742ZM674.512 674.363C674.655 675.223 675.15 675.9 675.996 676.395C676.842 676.876 677.962 677.117 679.355 677.117C681.296 677.117 683.132 676.746 684.863 676.004V681.277C682.845 682.085 680.397 682.488 677.52 682.488C674.03 682.488 671.315 681.596 669.375 679.812C667.435 678.029 666.465 675.574 666.465 672.449C666.465 670.301 666.888 668.406 667.734 666.766C668.594 665.125 669.857 663.842 671.523 662.918C673.203 661.98 675.052 661.512 677.07 661.512C679.141 661.512 680.911 661.915 682.383 662.723C683.854 663.53 684.967 664.663 685.723 666.121C686.491 667.579 686.875 669.285 686.875 671.238V674.363H674.512ZM679.512 670.008C679.512 667.703 678.685 666.551 677.031 666.551C676.341 666.551 675.762 666.87 675.293 667.508C674.824 668.133 674.551 668.966 674.473 670.008H679.512Z" fill="#172629"/>
<path d="M45.2344 738.848C44.5833 744.395 43.9779 748.392 43.418 750.84C42.8711 753.275 42.2201 755.15 41.4648 756.465C40.7096 757.767 39.7591 758.743 38.6133 759.395C37.4805 760.033 36.1458 760.352 34.6094 760.352C33.0859 760.352 31.7773 760.208 30.6836 759.922V753.281C31.1263 753.438 31.6471 753.516 32.2461 753.516C32.9753 753.516 33.6328 753.164 34.2188 752.461C34.8177 751.745 35.3385 750.553 35.7812 748.887C36.224 747.207 36.6862 744.87 37.168 741.875C37.6628 738.867 38.099 735.573 38.4766 731.992H58.0859V760H49.6484V738.848H45.2344ZM85.0977 749.648C85.0977 753.021 84.0755 755.671 82.0312 757.598C80 759.525 77.1549 760.488 73.4961 760.488C69.8633 760.488 67.0312 759.551 65 757.676C62.9818 755.788 61.9727 753.19 61.9727 749.883C61.9727 747.76 62.4479 745.918 63.3984 744.355C64.349 742.793 65.7031 741.595 67.4609 740.762C69.2188 739.928 71.2435 739.512 73.5352 739.512C75.9049 739.512 77.9557 739.948 79.6875 740.82C81.4323 741.693 82.7669 742.904 83.6914 744.453C84.6289 746.003 85.0977 747.734 85.0977 749.648ZM76.6602 749.688C76.6602 746.966 75.6185 745.605 73.5352 745.605C71.4518 745.605 70.4102 747.031 70.4102 749.883C70.4102 752.891 71.4648 754.395 73.5742 754.395C75.6315 754.395 76.6602 752.826 76.6602 749.688ZM100.898 760V753.164H100.41C99.7852 753.164 99.2448 753.366 98.7891 753.77C98.3333 754.173 97.9297 754.876 97.5781 755.879L96.0547 760H86.9727L89.1797 755C89.6745 753.867 90.2865 752.995 91.0156 752.383C91.7448 751.771 92.6758 751.322 93.8086 751.035C92.1029 750.71 90.8203 750.143 89.9609 749.336C89.1146 748.516 88.6914 747.35 88.6914 745.84C88.6914 743.848 89.4727 742.376 91.0352 741.426C92.5977 740.475 94.9479 740 98.0859 740H109.219V760H100.898ZM100.898 744.727H99.7656C98.7109 744.727 97.9818 744.902 97.5781 745.254C97.1745 745.592 96.9727 746.094 96.9727 746.758C96.9727 748.151 97.9297 748.848 99.8438 748.848H100.898V744.727ZM127.324 760V745.605H124.141C123.75 748.6 123.307 751.035 122.812 752.91C122.318 754.785 121.738 756.243 121.074 757.285C120.41 758.327 119.583 759.082 118.594 759.551C117.604 760.007 116.211 760.234 114.414 760.234C113.216 760.234 112.279 760.117 111.602 759.883V754.727C111.966 754.857 112.383 754.922 112.852 754.922C113.763 754.922 114.492 754.44 115.039 753.477C115.586 752.5 116.087 750.931 116.543 748.77C116.999 746.595 117.454 743.672 117.91 740H135.645V760H127.324ZM160.82 752.93C160.82 755.195 160.156 756.94 158.828 758.164C157.513 759.388 155.645 760 153.223 760H139.648V740H147.969V746.445H153.34C155.723 746.445 157.565 747.018 158.867 748.164C160.169 749.297 160.82 750.885 160.82 752.93ZM152.207 753.125C152.207 751.81 151.413 751.152 149.824 751.152H147.969V755.234H149.609C150.521 755.234 151.178 755.072 151.582 754.746C151.999 754.408 152.207 753.867 152.207 753.125ZM176.523 760V752.207H171.875V760H163.555V740H171.875V746.797H176.523V740H184.844V760H176.523ZM211.074 749.648C211.074 753.021 210.052 755.671 208.008 757.598C205.977 759.525 203.132 760.488 199.473 760.488C195.84 760.488 193.008 759.551 190.977 757.676C188.958 755.788 187.949 753.19 187.949 749.883C187.949 747.76 188.424 745.918 189.375 744.355C190.326 742.793 191.68 741.595 193.438 740.762C195.195 739.928 197.22 739.512 199.512 739.512C201.882 739.512 203.932 739.948 205.664 740.82C207.409 741.693 208.743 742.904 209.668 744.453C210.605 746.003 211.074 747.734 211.074 749.648ZM202.637 749.688C202.637 746.966 201.595 745.605 199.512 745.605C197.428 745.605 196.387 747.031 196.387 749.883C196.387 752.891 197.441 754.395 199.551 754.395C201.608 754.395 202.637 752.826 202.637 749.688ZM230.664 759.434C230.13 759.746 229.29 760 228.145 760.195C226.999 760.391 225.677 760.488 224.18 760.488C222.07 760.488 220.182 760.065 218.516 759.219C216.862 758.359 215.579 757.161 214.668 755.625C213.757 754.089 213.301 752.363 213.301 750.449C213.301 748.158 213.783 746.198 214.746 744.57C215.723 742.93 217.109 741.68 218.906 740.82C220.703 739.948 222.786 739.512 225.156 739.512C226.458 739.512 227.624 739.596 228.652 739.766C229.694 739.935 230.365 740.13 230.664 740.352V746.836C230.247 746.51 229.648 746.224 228.867 745.977C228.086 745.729 227.363 745.605 226.699 745.605C225.072 745.605 223.835 745.996 222.988 746.777C222.155 747.546 221.738 748.633 221.738 750.039C221.738 751.419 222.148 752.493 222.969 753.262C223.802 754.017 224.941 754.395 226.387 754.395C227.936 754.395 229.362 754.023 230.664 753.281V759.434ZM245.762 746.152V760H237.441V746.152H232.598V740H250.586V746.152H245.762ZM274.375 752.93C274.375 755.195 273.711 756.94 272.383 758.164C271.068 759.388 269.199 760 266.777 760H253.203V740H261.523V746.445H266.895C269.277 746.445 271.12 747.018 272.422 748.164C273.724 749.297 274.375 750.885 274.375 752.93ZM265.762 753.125C265.762 751.81 264.967 751.152 263.379 751.152H261.523V755.234H263.164C264.076 755.234 264.733 755.072 265.137 754.746C265.553 754.408 265.762 753.867 265.762 753.125Z" fill="#172629"/>
<path d="M50.8789 840V819.16H41.1914V840H32.7539V811.992H59.3164V840H50.8789ZM86.3086 829.648C86.3086 833.021 85.2865 835.671 83.2422 837.598C81.2109 839.525 78.3659 840.488 74.707 840.488C71.0742 840.488 68.2422 839.551 66.2109 837.676C64.1927 835.788 63.1836 833.19 63.1836 829.883C63.1836 827.76 63.6589 825.918 64.6094 824.355C65.5599 822.793 66.9141 821.595 68.6719 820.762C70.4297 819.928 72.4544 819.512 74.7461 819.512C77.1159 819.512 79.1667 819.948 80.8984 820.82C82.6432 821.693 83.9779 822.904 84.9023 824.453C85.8398 826.003 86.3086 827.734 86.3086 829.648ZM77.8711 829.688C77.8711 826.966 76.8294 825.605 74.7461 825.605C72.6628 825.605 71.6211 827.031 71.6211 829.883C71.6211 832.891 72.6758 834.395 74.7852 834.395C76.8424 834.395 77.8711 832.826 77.8711 829.688ZM110.586 833.848C110.586 835.879 109.941 837.415 108.652 838.457C107.376 839.486 105.488 840 102.988 840H89.4141V820H102.344C104.961 820 106.882 820.397 108.105 821.191C109.329 821.986 109.941 823.203 109.941 824.844C109.941 825.625 109.753 826.315 109.375 826.914C108.997 827.513 108.49 828.021 107.852 828.438C107.214 828.841 106.536 829.108 105.82 829.238C107.227 829.395 108.372 829.902 109.258 830.762C110.143 831.621 110.586 832.65 110.586 833.848ZM101.387 826.035C101.387 825.449 101.211 825.039 100.859 824.805C100.521 824.557 99.987 824.434 99.2578 824.434H97.7344V827.715H99.2969C99.987 827.715 100.508 827.559 100.859 827.246C101.211 826.921 101.387 826.517 101.387 826.035ZM101.973 833.594C101.973 833.073 101.79 832.663 101.426 832.363C101.074 832.064 100.566 831.914 99.9023 831.914H97.7344V835.449H99.668C101.204 835.449 101.973 834.831 101.973 833.594ZM125.566 826.152V840H117.246V826.152H112.402V820H130.391V826.152H125.566ZM155.254 829.648C155.254 833.021 154.232 835.671 152.188 837.598C150.156 839.525 147.311 840.488 143.652 840.488C140.02 840.488 137.188 839.551 135.156 837.676C133.138 835.788 132.129 833.19 132.129 829.883C132.129 827.76 132.604 825.918 133.555 824.355C134.505 822.793 135.859 821.595 137.617 820.762C139.375 819.928 141.4 819.512 143.691 819.512C146.061 819.512 148.112 819.948 149.844 820.82C151.589 821.693 152.923 822.904 153.848 824.453C154.785 826.003 155.254 827.734 155.254 829.648ZM146.816 829.688C146.816 826.966 145.775 825.605 143.691 825.605C141.608 825.605 140.566 827.031 140.566 829.883C140.566 832.891 141.621 834.395 143.73 834.395C145.788 834.395 146.816 832.826 146.816 829.688ZM180.918 829.395C180.918 831.582 180.547 833.516 179.805 835.195C179.062 836.875 178.014 838.177 176.66 839.102C175.306 840.026 173.783 840.488 172.09 840.488C169.746 840.488 167.969 839.635 166.758 837.93H166.68V849.199H158.359V820H166.68V822.715H166.758C167.422 821.712 168.281 820.931 169.336 820.371C170.391 819.798 171.589 819.512 172.93 819.512C175.508 819.512 177.48 820.371 178.848 822.09C180.228 823.809 180.918 826.243 180.918 829.395ZM172.48 829.648C172.48 828.385 172.233 827.396 171.738 826.68C171.257 825.964 170.508 825.605 169.492 825.605C168.607 825.605 167.891 825.983 167.344 826.738C166.797 827.493 166.523 828.529 166.523 829.844V830.234C166.523 831.497 166.758 832.507 167.227 833.262C167.695 834.017 168.398 834.395 169.336 834.395C170.339 834.395 171.113 833.984 171.66 833.164C172.207 832.331 172.48 831.159 172.48 829.648ZM197.031 840V832.207H192.383V840H184.062V820H192.383V826.797H197.031V820H205.352V840H197.031ZM232.539 840V820H240.859V840H232.539ZM230.508 832.93C230.508 835.195 229.844 836.94 228.516 838.164C227.201 839.388 225.332 840 222.91 840H209.336V820H217.656V826.445H223.027C225.41 826.445 227.253 827.018 228.555 828.164C229.857 829.297 230.508 830.885 230.508 832.93ZM221.895 833.125C221.895 831.81 221.1 831.152 219.512 831.152H217.656V835.234H219.297C220.208 835.234 220.866 835.072 221.27 834.746C221.686 834.408 221.895 833.867 221.895 833.125ZM252.051 832.363C252.194 833.223 252.689 833.9 253.535 834.395C254.382 834.876 255.501 835.117 256.895 835.117C258.835 835.117 260.671 834.746 262.402 834.004V839.277C260.384 840.085 257.936 840.488 255.059 840.488C251.569 840.488 248.854 839.596 246.914 837.812C244.974 836.029 244.004 833.574 244.004 830.449C244.004 828.301 244.427 826.406 245.273 824.766C246.133 823.125 247.396 821.842 249.062 820.918C250.742 819.98 252.591 819.512 254.609 819.512C256.68 819.512 258.451 819.915 259.922 820.723C261.393 821.53 262.507 822.663 263.262 824.121C264.03 825.579 264.414 827.285 264.414 829.238V832.363H252.051ZM257.051 828.008C257.051 825.703 256.224 824.551 254.57 824.551C253.88 824.551 253.301 824.87 252.832 825.508C252.363 826.133 252.09 826.966 252.012 828.008H257.051ZM291.406 840V825.605H286.758V840H278.438V820H299.727V840H291.406ZM326.27 829.395C326.27 831.582 325.898 833.516 325.156 835.195C324.414 836.875 323.366 838.177 322.012 839.102C320.658 840.026 319.134 840.488 317.441 840.488C315.098 840.488 313.32 839.635 312.109 837.93H312.031V849.199H303.711V820H312.031V822.715H312.109C312.773 821.712 313.633 820.931 314.688 820.371C315.742 819.798 316.94 819.512 318.281 819.512C320.859 819.512 322.832 820.371 324.199 822.09C325.579 823.809 326.27 826.243 326.27 829.395ZM317.832 829.648C317.832 828.385 317.585 827.396 317.09 826.68C316.608 825.964 315.859 825.605 314.844 825.605C313.958 825.605 313.242 825.983 312.695 826.738C312.148 827.493 311.875 828.529 311.875 829.844V830.234C311.875 831.497 312.109 832.507 312.578 833.262C313.047 834.017 313.75 834.395 314.688 834.395C315.69 834.395 316.465 833.984 317.012 833.164C317.559 832.331 317.832 831.159 317.832 829.648ZM351.66 829.648C351.66 833.021 350.638 835.671 348.594 837.598C346.562 839.525 343.717 840.488 340.059 840.488C336.426 840.488 333.594 839.551 331.562 837.676C329.544 835.788 328.535 833.19 328.535 829.883C328.535 827.76 329.01 825.918 329.961 824.355C330.911 822.793 332.266 821.595 334.023 820.762C335.781 819.928 337.806 819.512 340.098 819.512C342.467 819.512 344.518 819.948 346.25 820.82C347.995 821.693 349.329 822.904 350.254 824.453C351.191 826.003 351.66 827.734 351.66 829.648ZM343.223 829.688C343.223 826.966 342.181 825.605 340.098 825.605C338.014 825.605 336.973 827.031 336.973 829.883C336.973 832.891 338.027 834.395 340.137 834.395C342.194 834.395 343.223 832.826 343.223 829.688ZM372.441 847.285V840H359.922V847.285H353.379V834.395H355.098C356.374 832.168 357.318 829.896 357.93 827.578C358.555 825.26 358.932 822.734 359.062 820H375.82V834.395H379.102V847.285H372.441ZM367.539 825.391H365.254C365.02 828.633 364.206 831.634 362.812 834.395H367.539V825.391ZM392.773 840V836.953H392.695C391.367 839.31 389.336 840.488 386.602 840.488C384.714 840.488 383.236 839.928 382.168 838.809C381.1 837.689 380.566 836.191 380.566 834.316C380.566 830.384 382.982 828.105 387.812 827.48L392.773 826.836C392.773 826.185 392.48 825.651 391.895 825.234C391.309 824.818 390.521 824.609 389.531 824.609C387.292 824.609 384.928 825.247 382.441 826.523V821.113C383.522 820.645 384.876 820.26 386.504 819.961C388.132 819.661 389.525 819.512 390.684 819.512C394.082 819.512 396.543 820.241 398.066 821.699C399.603 823.145 400.371 825.566 400.371 828.965V840H392.773ZM387.852 833.203C387.852 833.75 388.021 834.199 388.359 834.551C388.711 834.902 389.206 835.078 389.844 835.078C390.716 835.078 391.419 834.753 391.953 834.102C392.5 833.451 392.773 832.617 392.773 831.602V830.84L389.961 831.23C388.555 831.465 387.852 832.122 387.852 833.203ZM427.559 840L423.242 829.961H423.164V840H415.234V829.961H415.156L410.879 840H401.973L407.734 829.395L402.031 820H410.703L415.156 829.648H415.234V820H423.164V829.648H423.242L427.676 820H436.348L430.645 829.395L436.445 840H427.559ZM452.891 840V829.16C452.383 830.137 451.849 831.042 451.289 831.875L445.605 840H438.242V820H445.898V830.234C446.25 829.479 446.738 828.652 447.363 827.754L452.656 820H460.488V840H452.891Z" fill="#172629"/>
<path d="M50.8789 505V484.16H41.1914V505H32.7539V476.992H59.3164V505H50.8789ZM86.6211 494.395C86.6211 496.582 86.25 498.516 85.5078 500.195C84.7656 501.875 83.7174 503.177 82.3633 504.102C81.0091 505.026 79.4857 505.488 77.793 505.488C75.4492 505.488 73.6719 504.635 72.4609 502.93H72.3828V514.199H64.0625V485H72.3828V487.715H72.4609C73.125 486.712 73.9844 485.931 75.0391 485.371C76.0938 484.798 77.2917 484.512 78.6328 484.512C81.2109 484.512 83.1836 485.371 84.5508 487.09C85.931 488.809 86.6211 491.243 86.6211 494.395ZM78.1836 494.648C78.1836 493.385 77.9362 492.396 77.4414 491.68C76.9596 490.964 76.2109 490.605 75.1953 490.605C74.3099 490.605 73.5938 490.983 73.0469 491.738C72.5 492.493 72.2266 493.529 72.2266 494.844V495.234C72.2266 496.497 72.4609 497.507 72.9297 498.262C73.3984 499.017 74.1016 499.395 75.0391 499.395C76.0417 499.395 76.8164 498.984 77.3633 498.164C77.9102 497.331 78.1836 496.159 78.1836 494.648ZM104.414 505V494.16C103.906 495.137 103.372 496.042 102.812 496.875L97.1289 505H89.7656V485H97.4219V495.234C97.7734 494.479 98.2617 493.652 98.8867 492.754L104.18 485H112.012V505H104.414ZM128.984 505V497.207H124.336V505H116.016V485H124.336V491.797H128.984V485H137.305V505H128.984ZM153.984 505V498.164H153.496C152.871 498.164 152.331 498.366 151.875 498.77C151.419 499.173 151.016 499.876 150.664 500.879L149.141 505H140.059L142.266 500C142.76 498.867 143.372 497.995 144.102 497.383C144.831 496.771 145.762 496.322 146.895 496.035C145.189 495.71 143.906 495.143 143.047 494.336C142.201 493.516 141.777 492.35 141.777 490.84C141.777 488.848 142.559 487.376 144.121 486.426C145.684 485.475 148.034 485 151.172 485H162.305V505H153.984ZM153.984 489.727H152.852C151.797 489.727 151.068 489.902 150.664 490.254C150.26 490.592 150.059 491.094 150.059 491.758C150.059 493.151 151.016 493.848 152.93 493.848H153.984V489.727ZM178.066 491.152V505H169.746V491.152H164.902V485H182.891V491.152H178.066ZM200.156 505V494.16C199.648 495.137 199.115 496.042 198.555 496.875L192.871 505H185.508V485H193.164V495.234C193.516 494.479 194.004 493.652 194.629 492.754L199.922 485H207.754V505H200.156ZM218.926 497.363C219.069 498.223 219.564 498.9 220.41 499.395C221.257 499.876 222.376 500.117 223.77 500.117C225.71 500.117 227.546 499.746 229.277 499.004V504.277C227.259 505.085 224.811 505.488 221.934 505.488C218.444 505.488 215.729 504.596 213.789 502.812C211.849 501.029 210.879 498.574 210.879 495.449C210.879 493.301 211.302 491.406 212.148 489.766C213.008 488.125 214.271 486.842 215.938 485.918C217.617 484.98 219.466 484.512 221.484 484.512C223.555 484.512 225.326 484.915 226.797 485.723C228.268 486.53 229.382 487.663 230.137 489.121C230.905 490.579 231.289 492.285 231.289 494.238V497.363H218.926ZM223.926 493.008C223.926 490.703 223.099 489.551 221.445 489.551C220.755 489.551 220.176 489.87 219.707 490.508C219.238 491.133 218.965 491.966 218.887 493.008H223.926ZM267.871 494.395C267.871 496.582 267.5 498.516 266.758 500.195C266.016 501.875 264.967 503.177 263.613 504.102C262.259 505.026 260.736 505.488 259.043 505.488C256.699 505.488 254.922 504.635 253.711 502.93H253.633V514.199H245.312V485H253.633V487.715H253.711C254.375 486.712 255.234 485.931 256.289 485.371C257.344 484.798 258.542 484.512 259.883 484.512C262.461 484.512 264.434 485.371 265.801 487.09C267.181 488.809 267.871 491.243 267.871 494.395ZM259.434 494.648C259.434 493.385 259.186 492.396 258.691 491.68C258.21 490.964 257.461 490.605 256.445 490.605C255.56 490.605 254.844 490.983 254.297 491.738C253.75 492.493 253.477 493.529 253.477 494.844V495.234C253.477 496.497 253.711 497.507 254.18 498.262C254.648 499.017 255.352 499.395 256.289 499.395C257.292 499.395 258.066 498.984 258.613 498.164C259.16 497.331 259.434 496.159 259.434 494.648ZM278.184 497.363C278.327 498.223 278.822 498.9 279.668 499.395C280.514 499.876 281.634 500.117 283.027 500.117C284.967 500.117 286.803 499.746 288.535 499.004V504.277C286.517 505.085 284.069 505.488 281.191 505.488C277.702 505.488 274.987 504.596 273.047 502.812C271.107 501.029 270.137 498.574 270.137 495.449C270.137 493.301 270.56 491.406 271.406 489.766C272.266 488.125 273.529 486.842 275.195 485.918C276.875 484.98 278.724 484.512 280.742 484.512C282.812 484.512 284.583 484.915 286.055 485.723C287.526 486.53 288.639 487.663 289.395 489.121C290.163 490.579 290.547 492.285 290.547 494.238V497.363H278.184ZM283.184 493.008C283.184 490.703 282.357 489.551 280.703 489.551C280.013 489.551 279.434 489.87 278.965 490.508C278.496 491.133 278.223 491.966 278.145 493.008H283.184ZM293.438 505V485H301.562V499.395H305.352V485H313.477V499.395H317.285V485H325.41V505H293.438ZM336.582 497.363C336.725 498.223 337.22 498.9 338.066 499.395C338.913 499.876 340.033 500.117 341.426 500.117C343.366 500.117 345.202 499.746 346.934 499.004V504.277C344.915 505.085 342.467 505.488 339.59 505.488C336.1 505.488 333.385 504.596 331.445 502.812C329.505 501.029 328.535 498.574 328.535 495.449C328.535 493.301 328.958 491.406 329.805 489.766C330.664 488.125 331.927 486.842 333.594 485.918C335.273 484.98 337.122 484.512 339.141 484.512C341.211 484.512 342.982 484.915 344.453 485.723C345.924 486.53 347.038 487.663 347.793 489.121C348.561 490.579 348.945 492.285 348.945 494.238V497.363H336.582ZM341.582 493.008C341.582 490.703 340.755 489.551 339.102 489.551C338.411 489.551 337.832 489.87 337.363 490.508C336.895 491.133 336.621 491.966 336.543 493.008H341.582ZM364.805 505V497.207H360.156V505H351.836V485H360.156V491.797H364.805V485H373.125V505H364.805ZM391.758 505V494.16C391.25 495.137 390.716 496.042 390.156 496.875L384.473 505H377.109V485H384.766V495.234C385.117 494.479 385.605 493.652 386.23 492.754L391.523 485H399.355V505H391.758ZM416.055 505V498.164H415.566C414.941 498.164 414.401 498.366 413.945 498.77C413.49 499.173 413.086 499.876 412.734 500.879L411.211 505H402.129L404.336 500C404.831 498.867 405.443 497.995 406.172 497.383C406.901 496.771 407.832 496.322 408.965 496.035C407.259 495.71 405.977 495.143 405.117 494.336C404.271 493.516 403.848 492.35 403.848 490.84C403.848 488.848 404.629 487.376 406.191 486.426C407.754 485.475 410.104 485 413.242 485H424.375V505H416.055ZM416.055 489.727H414.922C413.867 489.727 413.138 489.902 412.734 490.254C412.331 490.592 412.129 491.094 412.129 491.758C412.129 493.151 413.086 493.848 415 493.848H416.055V489.727Z" fill="#A84F46"/>
<path d="M53.5938 915.238C51.276 916.072 48.6003 916.488 45.5664 916.488C42.5846 916.488 40.013 915.922 37.8516 914.789C35.6901 913.643 34.0365 912.022 32.8906 909.926C31.7578 907.816 31.1914 905.388 31.1914 902.641C31.1914 899.685 31.8294 897.055 33.1055 894.75C34.3815 892.445 36.1849 890.668 38.5156 889.418C40.8464 888.155 43.5286 887.523 46.5625 887.523C48.9844 887.523 51.3281 887.816 53.5938 888.402V896.195C52.8125 895.727 51.8815 895.362 50.8008 895.102C49.7201 894.841 48.6263 894.711 47.5195 894.711C45.2279 894.711 43.418 895.368 42.0898 896.684C40.7747 897.999 40.1172 899.783 40.1172 902.035C40.1172 904.275 40.7747 906.046 42.0898 907.348C43.418 908.637 45.1888 909.281 47.4023 909.281C49.4466 909.281 51.5104 908.76 53.5938 907.719V915.238ZM68.2812 916V912.953H68.2031C66.875 915.31 64.8438 916.488 62.1094 916.488C60.2214 916.488 58.7435 915.928 57.6758 914.809C56.6081 913.689 56.0742 912.191 56.0742 910.316C56.0742 906.384 58.4896 904.105 63.3203 903.48L68.2812 902.836C68.2812 902.185 67.9883 901.651 67.4023 901.234C66.8164 900.818 66.0286 900.609 65.0391 900.609C62.7995 900.609 60.4362 901.247 57.9492 902.523V897.113C59.0299 896.645 60.3841 896.26 62.0117 895.961C63.6393 895.661 65.0326 895.512 66.1914 895.512C69.5898 895.512 72.0508 896.241 73.5742 897.699C75.1107 899.145 75.8789 901.566 75.8789 904.965V916H68.2812ZM63.3594 909.203C63.3594 909.75 63.5286 910.199 63.8672 910.551C64.2188 910.902 64.7135 911.078 65.3516 911.078C66.224 911.078 66.9271 910.753 67.4609 910.102C68.0078 909.451 68.2812 908.617 68.2812 907.602V906.84L65.4688 907.23C64.0625 907.465 63.3594 908.122 63.3594 909.203ZM102.207 905.395C102.207 907.582 101.836 909.516 101.094 911.195C100.352 912.875 99.3034 914.177 97.9492 915.102C96.5951 916.026 95.0716 916.488 93.3789 916.488C91.0352 916.488 89.2578 915.635 88.0469 913.93H87.9688V925.199H79.6484V896H87.9688V898.715H88.0469C88.7109 897.712 89.5703 896.931 90.625 896.371C91.6797 895.798 92.8776 895.512 94.2188 895.512C96.7969 895.512 98.7695 896.371 100.137 898.09C101.517 899.809 102.207 902.243 102.207 905.395ZM93.7695 905.648C93.7695 904.385 93.5221 903.396 93.0273 902.68C92.5456 901.964 91.7969 901.605 90.7812 901.605C89.8958 901.605 89.1797 901.983 88.6328 902.738C88.0859 903.493 87.8125 904.529 87.8125 905.844V906.234C87.8125 907.497 88.0469 908.507 88.5156 909.262C88.9844 910.017 89.6875 910.395 90.625 910.395C91.6276 910.395 92.4023 909.984 92.9492 909.164C93.4961 908.331 93.7695 907.159 93.7695 905.648ZM116.445 916V912.953H116.367C115.039 915.31 113.008 916.488 110.273 916.488C108.385 916.488 106.908 915.928 105.84 914.809C104.772 913.689 104.238 912.191 104.238 910.316C104.238 906.384 106.654 904.105 111.484 903.48L116.445 902.836C116.445 902.185 116.152 901.651 115.566 901.234C114.98 900.818 114.193 900.609 113.203 900.609C110.964 900.609 108.6 901.247 106.113 902.523V897.113C107.194 896.645 108.548 896.26 110.176 895.961C111.803 895.661 113.197 895.512 114.355 895.512C117.754 895.512 120.215 896.241 121.738 897.699C123.275 899.145 124.043 901.566 124.043 904.965V916H116.445ZM111.523 909.203C111.523 909.75 111.693 910.199 112.031 910.551C112.383 910.902 112.878 911.078 113.516 911.078C114.388 911.078 115.091 910.753 115.625 910.102C116.172 909.451 116.445 908.617 116.445 907.602V906.84L113.633 907.23C112.227 907.465 111.523 908.122 111.523 909.203ZM159.492 905.883C159.492 907.914 159.056 909.691 158.184 911.215C157.311 912.738 156.035 913.917 154.355 914.75C152.676 915.583 150.684 916 148.379 916H147.109V925.199H139.219V916H137.949C135.658 916 133.672 915.583 131.992 914.75C130.326 913.917 129.043 912.738 128.145 911.215C127.259 909.691 126.816 907.914 126.816 905.883C126.816 903.878 127.24 902.133 128.086 900.648C128.945 899.164 130.195 898.018 131.836 897.211C133.477 896.404 135.456 896 137.773 896H139.219V887.191H147.109V896H148.535C151.986 896 154.674 896.872 156.602 898.617C158.529 900.349 159.492 902.771 159.492 905.883ZM151.094 906.078C151.094 904.659 150.768 903.539 150.117 902.719C149.466 901.898 148.555 901.488 147.383 901.488H147.109V910.512H147.266C148.49 910.512 149.434 910.121 150.098 909.34C150.762 908.546 151.094 907.458 151.094 906.078ZM139.219 901.488H138.945C137.786 901.488 136.875 901.892 136.211 902.699C135.547 903.507 135.215 904.633 135.215 906.078C135.215 907.497 135.547 908.591 136.211 909.359C136.875 910.128 137.812 910.512 139.023 910.512H139.219V901.488ZM173.594 916V912.953H173.516C172.188 915.31 170.156 916.488 167.422 916.488C165.534 916.488 164.056 915.928 162.988 914.809C161.921 913.689 161.387 912.191 161.387 910.316C161.387 906.384 163.802 904.105 168.633 903.48L173.594 902.836C173.594 902.185 173.301 901.651 172.715 901.234C172.129 900.818 171.341 900.609 170.352 900.609C168.112 900.609 165.749 901.247 163.262 902.523V897.113C164.342 896.645 165.697 896.26 167.324 895.961C168.952 895.661 170.345 895.512 171.504 895.512C174.902 895.512 177.363 896.241 178.887 897.699C180.423 899.145 181.191 901.566 181.191 904.965V916H173.594ZM168.672 909.203C168.672 909.75 168.841 910.199 169.18 910.551C169.531 910.902 170.026 911.078 170.664 911.078C171.536 911.078 172.24 910.753 172.773 910.102C173.32 909.451 173.594 908.617 173.594 907.602V906.84L170.781 907.23C169.375 907.465 168.672 908.122 168.672 909.203ZM197.93 916V908.207H193.281V916H184.961V896H193.281V902.797H197.93V896H206.25V916H197.93ZM223.203 916V908.207H218.555V916H210.234V896H218.555V902.797H223.203V896H231.523V916H223.203ZM257.754 905.648C257.754 909.021 256.732 911.671 254.688 913.598C252.656 915.525 249.811 916.488 246.152 916.488C242.52 916.488 239.688 915.551 237.656 913.676C235.638 911.788 234.629 909.19 234.629 905.883C234.629 903.76 235.104 901.918 236.055 900.355C237.005 898.793 238.359 897.595 240.117 896.762C241.875 895.928 243.9 895.512 246.191 895.512C248.561 895.512 250.612 895.948 252.344 896.82C254.089 897.693 255.423 898.904 256.348 900.453C257.285 902.003 257.754 903.734 257.754 905.648ZM249.316 905.688C249.316 902.966 248.275 901.605 246.191 901.605C244.108 901.605 243.066 903.031 243.066 905.883C243.066 908.891 244.121 910.395 246.23 910.395C248.288 910.395 249.316 908.826 249.316 905.688ZM268.027 908.363C268.171 909.223 268.665 909.9 269.512 910.395C270.358 910.876 271.478 911.117 272.871 911.117C274.811 911.117 276.647 910.746 278.379 910.004V915.277C276.361 916.085 273.913 916.488 271.035 916.488C267.546 916.488 264.831 915.596 262.891 913.812C260.951 912.029 259.98 909.574 259.98 906.449C259.98 904.301 260.404 902.406 261.25 900.766C262.109 899.125 263.372 897.842 265.039 896.918C266.719 895.98 268.568 895.512 270.586 895.512C272.656 895.512 274.427 895.915 275.898 896.723C277.37 897.53 278.483 898.663 279.238 900.121C280.007 901.579 280.391 903.285 280.391 905.238V908.363H268.027ZM273.027 904.008C273.027 901.703 272.201 900.551 270.547 900.551C269.857 900.551 269.277 900.87 268.809 901.508C268.34 902.133 268.066 902.966 267.988 904.008H273.027ZM316.973 905.395C316.973 907.582 316.602 909.516 315.859 911.195C315.117 912.875 314.069 914.177 312.715 915.102C311.361 916.026 309.837 916.488 308.145 916.488C305.801 916.488 304.023 915.635 302.812 913.93H302.734V925.199H294.414V896H302.734V898.715H302.812C303.477 897.712 304.336 896.931 305.391 896.371C306.445 895.798 307.643 895.512 308.984 895.512C311.562 895.512 313.535 896.371 314.902 898.09C316.283 899.809 316.973 902.243 316.973 905.395ZM308.535 905.648C308.535 904.385 308.288 903.396 307.793 902.68C307.311 901.964 306.562 901.605 305.547 901.605C304.661 901.605 303.945 901.983 303.398 902.738C302.852 903.493 302.578 904.529 302.578 905.844V906.234C302.578 907.497 302.812 908.507 303.281 909.262C303.75 910.017 304.453 910.395 305.391 910.395C306.393 910.395 307.168 909.984 307.715 909.164C308.262 908.331 308.535 907.159 308.535 905.648ZM331.211 916V912.953H331.133C329.805 915.31 327.773 916.488 325.039 916.488C323.151 916.488 321.673 915.928 320.605 914.809C319.538 913.689 319.004 912.191 319.004 910.316C319.004 906.384 321.419 904.105 326.25 903.48L331.211 902.836C331.211 902.185 330.918 901.651 330.332 901.234C329.746 900.818 328.958 900.609 327.969 900.609C325.729 900.609 323.366 901.247 320.879 902.523V897.113C321.96 896.645 323.314 896.26 324.941 895.961C326.569 895.661 327.962 895.512 329.121 895.512C332.52 895.512 334.98 896.241 336.504 897.699C338.04 899.145 338.809 901.566 338.809 904.965V916H331.211ZM326.289 909.203C326.289 909.75 326.458 910.199 326.797 910.551C327.148 910.902 327.643 911.078 328.281 911.078C329.154 911.078 329.857 910.753 330.391 910.102C330.938 909.451 331.211 908.617 331.211 907.602V906.84L328.398 907.23C326.992 907.465 326.289 908.122 326.289 909.203ZM360.254 923.285V916H347.734V923.285H341.191V910.395H342.91C344.186 908.168 345.13 905.896 345.742 903.578C346.367 901.26 346.745 898.734 346.875 896H363.633V910.395H366.914V923.285H360.254ZM355.352 901.391H353.066C352.832 904.633 352.018 907.634 350.625 910.395H355.352V901.391ZM384.141 916V905.16C383.633 906.137 383.099 907.042 382.539 907.875L376.855 916H369.492V896H377.148V906.234C377.5 905.479 377.988 904.652 378.613 903.754L383.906 896H391.738V916H384.141ZM417.988 905.648C417.988 909.021 416.966 911.671 414.922 913.598C412.891 915.525 410.046 916.488 406.387 916.488C402.754 916.488 399.922 915.551 397.891 913.676C395.872 911.788 394.863 909.19 394.863 905.883C394.863 903.76 395.339 901.918 396.289 900.355C397.24 898.793 398.594 897.595 400.352 896.762C402.109 895.928 404.134 895.512 406.426 895.512C408.796 895.512 410.846 895.948 412.578 896.82C414.323 897.693 415.658 898.904 416.582 900.453C417.52 902.003 417.988 903.734 417.988 905.648ZM409.551 905.688C409.551 902.966 408.509 901.605 406.426 901.605C404.342 901.605 403.301 903.031 403.301 905.883C403.301 908.891 404.355 910.395 406.465 910.395C408.522 910.395 409.551 908.826 409.551 905.688Z" fill="#A84F46"/>
</g>
<defs>
<clipPath id="clip0_10_2">
<rect width="1200" height="1000" fill="white"/>
</clipPath>
</defs>
</svg>
