<svg width="126" height="122" viewBox="0 0 126 122" fill="none" xmlns="http://www.w3.org/2000/svg">
<path fill-rule="evenodd" clip-rule="evenodd" d="M27.2552 48.8602C22.9004 51.6764 20.8397 56.0252 20.166 61.2966C25.6529 66.0976 31.2399 68.7864 36.9726 68.3099L37.2365 59.8521L44.344 67.9124C46.5928 58.4743 44.1194 52.6202 40.1651 51.0907L27.2552 48.8602Z" fill="#010100"/>
<path fill-rule="evenodd" clip-rule="evenodd" d="M28.8528 49.6015C32.0666 50.5665 36.0725 51.4163 38.9768 51.5255C38.9768 51.5255 37.7993 58.3628 36.7371 58.3355C34.5309 58.2748 28.0486 49.4801 28.8528 49.6015Z" fill="#CCCCCC"/>
<path fill-rule="evenodd" clip-rule="evenodd" d="M20.874 60.9086C21.5326 55.707 24.4156 50.4205 28.0239 49.4797C30.0542 53.2246 33.6959 58.0195 36.7398 59.0938L36.588 67.934C30.1665 68.3892 23.9361 64.3742 20.874 60.9086Z" fill="#832C24"/>
<path fill-rule="evenodd" clip-rule="evenodd" d="M39.6168 51.5366C39.113 54.9719 38.3331 57.2541 37.2314 58.9444L44.0688 66.8166C45.8593 57.2784 43.5711 52.8628 39.6168 51.5366Z" fill="#832C24"/>
<path fill-rule="evenodd" clip-rule="evenodd" d="M6.35173 28.4335C6.35173 28.4335 4.9163 18.0425 10.1513 13.2628C15.3862 8.48302 18.1934 0.971985 18.1934 0.971985C18.3876 2.51061 18.4331 4.1858 17.5864 6.66216C20.4816 4.1858 23.5346 2.5622 26.8424 2.26176C25.8046 2.90816 24.6635 3.73362 24.9791 4.6926C27.7074 4.23739 30.2232 4.62584 32.5357 5.8276C32.5357 5.8276 33.4218 4.39519 35.6341 4.34664C41.7826 4.204 46.7748 19.4689 47.0601 22.3306C48.0585 21.9786 49.0144 20.6281 49.9097 17.8908C50.3649 19.0804 50.5773 20.3884 49.9946 22.0939C50.5379 21.7237 51.1327 21.1926 51.7761 20.5098C51.8914 22.1152 51.6364 23.6113 50.8201 24.9496C51.163 25.0073 51.5606 24.804 52.034 24.2668C52.0977 25.3229 51.8003 26.1969 51.1994 26.9222C51.9733 26.3244 52.6561 25.9723 53.0962 26.2394C51.1084 27.5504 50.374 30.5609 49.3786 33.2194L40.0467 36.7852L31.167 44.9032L17.9658 40.0476C17.7442 42.6787 17.9142 45.4221 20.9368 48.9667C18.3148 49.2399 16.9036 48.7604 15.4621 47.8651C16.5394 49.6617 17.9567 51.0152 19.8625 51.7344C18.0781 51.6677 16.33 51.0698 14.6275 49.7618C14.4212 51.2216 15.7018 52.3626 17.814 53.3277C12.9129 53.6008 11.0981 50.7178 9.77191 47.331C8.70975 48.7998 8.8888 50.2656 9.16496 51.7344C7.96927 50.0471 7.34107 48.032 7.72345 45.4343C6.47616 45.765 5.7812 46.4934 5.44738 47.4827C4.7767 45.8257 5.22584 43.9351 6.1302 41.9443C5.10749 41.8806 4.31237 42.3874 3.62045 43.1521C3.59921 41.9807 4.17582 40.9701 5.06804 40.0476C3.74184 39.5013 2.5765 39.8715 1.50219 40.7304C2.1577 38.424 3.85417 36.4817 6.16969 34.755C3.40199 33.6169 1.35957 31.8841 0 29.5868C1.14714 30.303 2.32462 30.8097 3.63564 30.4456C1.93314 29.177 1.01361 27.9085 0.227607 26.64C2.27 27.9844 4.30934 28.9161 6.35173 28.4335Z" fill="black"/>
<path fill-rule="evenodd" clip-rule="evenodd" d="M7.13732 29.0562C7.13732 29.0562 5.70188 18.304 10.9368 13.5243C16.1718 8.7415 17.6831 3.30323 17.6831 3.30323C17.8773 4.84489 17.3766 5.91009 16.5299 8.38646C19.425 5.91009 21.3825 3.54903 24.6904 3.24859C23.9105 3.983 23.3581 5.3426 23.0091 6.41994C25.1577 4.7751 30.3957 5.22425 32.7082 6.42601C32.7082 6.42601 33.6611 4.98753 35.8734 4.94201C41.4271 4.83276 46.3859 20.7288 46.835 23.1293C47.8335 22.7742 48.9563 21.9215 49.8516 19.1872C50.3068 20.3737 49.888 21.5179 49.3083 23.2234C49.8485 22.8501 50.7104 22.2553 51.3538 21.5725C51.4691 23.1748 50.6497 24.4069 49.8333 25.7453C50.1763 25.8029 51.2051 25.5996 51.6785 25.0624C51.7422 26.1185 50.6497 27.0259 50.0489 27.7512C50.932 27.3992 51.4691 26.9076 51.9789 26.8863C50.5769 28.252 50.1975 30.2731 48.8562 33.2533L40.0553 36.7857L31.1756 44.9037L17.5405 39.1771C17.3189 41.8083 16.9578 44.9857 19.9835 48.5333C17.3584 48.8064 15.9169 47.7655 14.4753 46.8702C15.5527 48.6668 16.2871 50.3632 18.1929 51.0794C16.5633 50.7365 15.8713 50.0112 14.1688 48.7032C13.9625 50.166 13.9382 51.7411 16.0504 52.7061C12.1751 52.2023 11.3556 49.5074 10.0295 46.1207C8.96728 47.5864 8.49389 48.6183 8.77006 50.0871C7.57436 48.3998 8.27232 46.9643 8.6547 44.3666C7.40741 44.6973 6.00533 45.5592 5.6715 46.5516C5.24967 44.7702 6.4393 43.2346 7.34062 41.2468C6.32094 41.1831 5.05854 41.3015 4.36965 42.0662C4.6185 40.9707 5.46818 40.6217 6.35736 39.6991C5.03117 39.1498 3.94473 38.4336 2.87043 39.2955C3.52593 36.986 5.68977 36.4428 8.00529 34.716C5.23455 33.581 2.92207 33.0499 1.5625 30.7526C2.70964 31.4688 3.77176 31.1987 5.08278 30.8346C3.38028 29.566 2.57914 29.2686 1.79011 28.0001C3.8325 29.3445 5.09796 29.5387 7.13732 29.0562Z" fill="#CCCCCC"/>
<path fill-rule="evenodd" clip-rule="evenodd" d="M31.3335 42.6355L24.6357 43.6582L17.5405 39.1759C17.3189 41.807 16.9578 44.9844 19.9835 48.5321C17.3584 48.8052 15.9169 47.7643 14.4753 46.869C15.5527 48.6656 16.2871 50.362 18.1929 51.0782C16.5633 50.7353 15.8713 50.01 14.1688 48.702C13.9625 50.1648 13.9382 51.7398 16.0504 52.7049C12.1751 52.2011 11.3556 49.5062 10.0295 46.1194C8.96728 47.5852 8.49389 48.6171 8.77006 50.0859C7.57436 48.3986 8.27232 46.9631 8.6547 44.3653C7.40741 44.6961 6.00533 45.558 5.6715 46.5504C5.24967 44.769 6.4393 43.2334 7.34062 41.2456C6.32094 41.1819 5.05854 41.3002 4.36965 42.065C4.6185 40.9694 5.46818 40.6204 6.35736 39.6979C5.03117 39.1486 3.94473 38.4324 2.87043 39.2943C3.52593 36.9848 5.68977 36.4416 8.00529 34.7148C5.23455 33.5798 2.92207 33.0487 1.5625 30.7514C2.70964 31.4676 3.77176 31.1975 5.08278 30.8333C3.38028 29.5648 2.57914 29.2674 1.79011 27.9989C3.8325 29.3433 5.09796 29.5375 7.13732 29.055C7.13732 29.055 5.70188 18.3028 10.9368 13.5231C16.1718 8.74027 17.6831 3.30201 17.6831 3.30201C18.1808 3.79364 16.976 8.17888 16.5815 8.35793C18.6239 6.6797 20.6086 5.19264 21.8893 5.36562C20.9455 6.08789 19.9743 7.14704 17.8288 11.945C16.9001 14.0238 16.8607 18.1298 16.888 18.928C16.9609 21.1676 16.9123 23.5863 20.1959 13.6172L19.862 14.2909L19.7559 16.1299C19.7559 16.1299 25.4217 37.2428 31.3335 42.6355Z" fill="#939393"/>
<path fill-rule="evenodd" clip-rule="evenodd" d="M16.8852 19.5363C16.8852 19.5363 15.8169 11.6733 19.6437 9.47609C23.6253 7.19091 26.7724 12.3227 26.7724 12.3227C20.7939 6.36546 16.9337 10.5534 16.8852 19.5363Z" fill="black"/>
<path fill-rule="evenodd" clip-rule="evenodd" d="M32.0856 12.0752C32.0856 12.0752 31.0828 6.18849 33.309 5.16202C37.2451 3.34878 39.7689 7.25024 39.7689 7.25024C35.5545 2.66201 31.5588 5.10466 32.0856 12.0752Z" fill="black"/>
<path fill-rule="evenodd" clip-rule="evenodd" d="M12.6709 34.2239C12.6709 34.2239 13.4174 35.2922 13.4933 36.7185C13.5692 38.0872 12.8196 39.2343 12.8196 39.2343C13.0988 37.6654 13.0502 35.9962 12.6709 34.2239Z" fill="black"/>
<path fill-rule="evenodd" clip-rule="evenodd" d="M29.4499 42.5488C29.4499 42.5488 24.84 37.942 21.0011 30.4067C15.7874 20.1705 19.7508 13.8461 20.1878 13.6154C19.9389 14.2375 19.8843 14.626 20.1089 15.148C20.1089 15.148 23.004 12.9296 27.0827 15.673C31.2889 18.5014 33.2008 26.6558 34.5816 31.6085C35.3616 34.4126 35.9746 36.188 35.9746 36.188C35.9746 36.188 34.178 37.5748 33.7168 38.8039C32.9034 40.9647 29.4499 42.5488 29.4499 42.5488Z" fill="black"/>
<path fill-rule="evenodd" clip-rule="evenodd" d="M29.5535 41.8781C29.5535 41.8781 24.7221 36.98 21.8027 30.5737C17.8939 22.0065 19.2141 17.7579 20.5858 16.3619C21.1351 15.8005 23.0925 13.8855 27.1712 16.632C31.3774 19.4604 32.828 26.8075 34.2088 31.7603C34.9887 34.5644 35.3559 36.0484 35.3559 36.0484C35.3559 36.0484 34.1481 37.4079 33.1922 38.7098C31.8265 40.5701 29.5535 41.8781 29.5535 41.8781Z" fill="#FFDA53"/>
<path fill-rule="evenodd" clip-rule="evenodd" d="M31.5138 29.7689C32.0574 29.2183 32.756 29.0209 33.1122 29.0951C33.1122 29.0951 33.7696 31.113 34.4351 32.6751C35.1111 34.2716 35.7666 35.9001 35.7666 35.9001L34.7211 37.1123C34.4678 37.3265 33.093 36.9409 31.6339 34.7445C30.3174 32.7635 30.6811 30.6146 31.5138 29.7689Z" fill="black"/>
<path fill-rule="evenodd" clip-rule="evenodd" d="M30.6385 33.0588C31.1484 34.9404 32.6111 34.3729 32.6111 34.7765C32.6111 35.1801 31.9374 35.4411 32.3865 36.2483C33.2879 37.881 29.3457 35.3683 29.3457 34.9646C29.3457 34.561 30.4109 32.2182 30.6385 33.0588Z" fill="#FFDA53"/>
<path fill-rule="evenodd" clip-rule="evenodd" d="M40.5195 32.8221C40.5195 32.8221 37.4605 26.8679 35.758 17.9093C34.2315 9.87024 37.4969 9.7883 37.4969 9.7883C37.4362 9.52124 37.2207 9.19349 36.8504 8.80808C37.4361 8.75649 41.6181 11.509 43.9518 21.2111C45.4995 27.6479 44.7651 32.8282 44.7651 32.8282C44.7651 32.8282 43.8183 33.6051 42.8562 33.1468C42.1916 32.8312 40.5195 32.8221 40.5195 32.8221Z" fill="black"/>
<path fill-rule="evenodd" clip-rule="evenodd" d="M40.8323 32.4096C40.2011 30.4643 38.0464 27.6147 36.5017 18.1766C35.3607 11.1966 37.5851 10.5563 38.2649 10.7444C38.9963 10.9447 41.5455 13.1783 43.6607 21.6878C45.257 28.1124 44.4497 32.88 44.4497 32.88C44.4497 32.88 43.9187 33.0226 42.9779 32.7646C42.2678 32.5704 40.8323 32.4096 40.8323 32.4096Z" fill="#FFDA53"/>
<path fill-rule="evenodd" clip-rule="evenodd" d="M44.623 32.8251C43.9826 33.0527 43.3545 33.3531 42.6534 32.7978C42.6534 32.7978 42.0191 31.4868 42.4683 30.8555C42.8719 30.2911 43.1663 30.3518 43.1147 30.018C43.0601 29.6629 42.3985 29.7934 42.0829 28.9133C41.8128 28.1455 41.6519 27.0135 42.9174 26.1152C43.9735 25.3687 44.5015 25.4597 44.5015 25.4597C44.6594 28.7525 44.8688 30.9891 44.623 32.8251Z" fill="#010100"/>
<path fill-rule="evenodd" clip-rule="evenodd" d="M17.3444 43.1916C16.0971 41.9747 15.0896 40.251 15.0411 37.8717C14.9986 35.7413 15.6268 32.4395 17.1806 32.0874C18.7344 31.7324 20.537 32.2999 21.0317 33.6412C21.5264 34.9826 21.1986 40.2873 23.4838 41.5195C25.1347 42.4086 25.9995 42.3237 28.7248 42.087C30.4182 41.9383 31.0707 41.3981 32.6275 39.7168C33.5622 38.7123 35.1403 36.3422 36.4816 35.2254C37.9383 34.0115 38.8912 32.1481 40.9397 32.5032C42.9881 32.8552 44.8697 33.0677 45.7164 32.4304C46.5631 31.7961 46.724 28.3729 46.6208 27.0558C46.5115 25.6689 46.8727 24.3154 48.1382 24.9345C49.1791 25.4444 49.0971 27.3168 49.2246 28.5489C49.3338 29.605 52.0165 34.7429 52.0165 34.7429C52.0165 34.7429 54.6659 33.5016 55.7858 35.9901C56.0892 36.6608 55.81 37.4438 55.81 37.4438C55.81 37.4438 56.3108 39.0188 55.461 40.3329C54.2835 42.1568 45.2977 49.9986 42.3023 50.7967C39.8503 51.4462 30.3939 50.1625 27.0375 48.8636C23.9693 47.674 19.3079 45.1096 17.3444 43.1916Z" fill="black"/>
<path fill-rule="evenodd" clip-rule="evenodd" d="M18.2687 43.1923C17.0244 41.9754 15.6528 40.4307 15.6042 38.0515C15.5617 35.9211 15.8773 32.9713 17.4311 32.6162C18.9849 32.2642 20.1533 32.7528 20.6479 34.0972C21.1426 35.4385 21.0243 40.0908 23.012 41.7599C24.1986 42.7553 26.0741 42.904 28.9783 42.467C30.6596 42.2151 32.4895 40.3124 34.0464 38.6311C34.978 37.6266 35.6245 36.3915 37.1085 35.475C38.5925 34.5554 39.166 32.6162 41.2145 32.9713C43.2599 33.3233 45.275 33.2596 46.1217 32.6223C46.9684 31.988 47.2688 28.3888 47.0989 27.0808C46.9896 26.2371 46.8804 24.7015 48.1004 25.4026C48.771 25.791 48.7104 28.0337 48.9137 28.9684C49.1383 30.0063 51.8058 35.4112 51.8058 35.4112C51.8058 35.4112 54.1456 33.6116 55.3899 36.0394C55.6691 36.5796 55.4627 37.5841 55.4627 37.5841C55.5082 37.8542 55.6691 38.4763 55.49 39.3079C55.3747 39.8238 55.0743 40.2668 54.6676 40.722C53.217 42.3365 45.1081 49.5714 42.5073 50.2178C40.0431 50.8308 31.2241 49.7778 27.8676 48.4789C24.7995 47.2893 20.2352 45.1103 18.2687 43.1923Z" fill="#A84F46"/>
<path fill-rule="evenodd" clip-rule="evenodd" d="M39.3218 39.3647C39.3218 39.3647 37.8591 38.8822 37.6527 38.6728C37.4767 38.4998 37.7589 37.9293 37.9895 38.0173C38.2536 38.1144 39.3218 39.3647 39.3218 39.3647Z" fill="#010100"/>
<path fill-rule="evenodd" clip-rule="evenodd" d="M17.6947 35.6649C18.7417 35.3007 18.0619 40.3293 19.3881 42.0166C21.649 44.8905 26.3711 46.6143 29.3815 47.7523C31.2965 48.4746 39.1443 49.1786 41.8544 48.7568C43.2261 48.5444 47.7904 45.5491 50.9586 42.5325C53.3288 40.2747 54.8918 38.4356 55.4957 37.4887C55.6808 37.2004 55.9933 37.7315 55.7354 38.1291C55.1041 39.0911 53.6202 40.7693 51.3896 42.9179C48.2729 45.9254 43.5175 49.3061 41.9849 49.476C39.3781 49.7704 31.8366 49.1028 29.254 48.1741C26.7686 47.2789 21.2423 45.5005 18.9359 42.3383C17.9344 40.9605 16.8874 35.9501 17.6947 35.6649Z" fill="black"/>
<path fill-rule="evenodd" clip-rule="evenodd" d="M41.3396 43.8411C40.8237 43.3617 40.1743 42.2995 39.9892 40.1994C39.8587 38.6972 40.2229 35.4956 42.414 34.3939C43.552 33.8204 44.7173 33.7233 45.4335 34.227C46.1497 34.7339 46.5049 35.8689 46.5473 37.1131C46.5868 38.2511 46.6535 39.7139 46.6535 39.7139C46.6535 39.7139 45.47 41.5924 44.7113 42.3086C44.3411 42.6576 43.4943 43.6136 42.7872 44.0141C42.0407 44.436 41.6128 44.0961 41.3396 43.8411Z" fill="#010100"/>
<path fill-rule="evenodd" clip-rule="evenodd" d="M47.3894 36.4665C47.3283 35.9352 47.4146 34.9281 48.0787 33.3149C48.5547 32.1616 49.8576 29.9244 51.2339 29.8653C51.9492 29.8335 52.5073 30.1627 52.6497 30.7808C52.7911 31.4011 52.5467 32.3607 52.123 33.2934C51.7357 34.1467 51.2452 35.2489 51.2452 35.2489C51.2452 35.2489 50.045 36.2279 49.4494 36.4954C49.1588 36.6256 48.4383 37.0397 47.9781 37.0921C47.4926 37.1465 47.4214 36.7485 47.3894 36.4665Z" fill="#010100"/>
<path fill-rule="evenodd" clip-rule="evenodd" d="M44.2381 34.8992C46.5163 34.1892 46.1987 39.679 46.1987 39.679C45.2036 41.2228 44.1704 42.3001 43.116 43.0968C43.116 43.0968 42.2732 41.714 42.4257 39.1177C42.5612 36.8062 43.2133 35.2211 44.2381 34.8992Z" fill="#CFF1FF"/>
<path fill-rule="evenodd" clip-rule="evenodd" d="M52.0236 30.3756C53.1727 30.511 51.3624 34.7959 51.3624 34.7959C50.4829 35.7216 49.7305 36.2632 49.0554 36.5742C49.0554 36.5742 49.134 35.2106 49.9911 33.1848C50.754 31.3812 51.5059 30.3168 52.0236 30.3756Z" fill="#CFF1FF"/>
<path fill-rule="evenodd" clip-rule="evenodd" d="M43.9943 34.3277C42.7683 35.0348 41.9246 36.6736 41.8821 39.2015C41.8306 42.4366 42.7622 43.4805 42.7622 43.4805C41.9641 44.4244 40.4771 42.7036 40.5287 39.2258C40.5863 35.3352 43.0718 34.5128 43.9943 34.3277Z" fill="#373737"/>
<path fill-rule="evenodd" clip-rule="evenodd" d="M51.11 30.0794C50.4394 30.3179 49.659 31.4341 48.9429 33.511C48.0276 36.1697 48.0995 37.2951 48.0995 37.2951C47.5292 37.8499 47.4294 36.0086 48.412 33.1494C49.5111 29.9508 50.7014 29.9722 51.11 30.0794Z" fill="#373737"/>
<path fill-rule="evenodd" clip-rule="evenodd" d="M38.5756 45.4427C38.4937 45.3213 42.0625 44.1499 42.9244 43.4671C43.4221 43.0726 44.724 41.8921 45.7194 40.6721C46.4538 39.7708 46.9394 38.7693 47.2459 38.4324C47.9651 37.6404 49.0637 37.4856 49.8193 36.9818C50.575 36.4781 52.1652 34.7058 52.1652 34.7058C53.1788 34.6451 54.0892 34.6268 53.9982 34.8089C53.9982 34.8089 53.1454 34.6329 52.5537 35.079C51.9346 35.5494 51.3974 36.3688 51.0515 36.6723C48.9423 38.4992 48.6722 37.8103 47.698 38.7936C46.7026 39.8041 45.6709 42.5172 43.3341 43.8131C42.5572 44.244 38.6849 45.6066 38.5756 45.4427Z" fill="#010100"/>
<path d="M63.6926 87.8948C69.1738 90.9596 74.7978 91.5395 76.2544 89.1901C77.7109 86.8406 74.4483 82.4515 68.9672 79.3866C63.4861 76.3218 57.862 75.7419 56.4054 78.0913C54.9489 80.4408 58.2115 84.8299 63.6926 87.8948Z" fill="black"/>
<path fill-rule="evenodd" clip-rule="evenodd" d="M53.2101 73.8969C53.2101 73.8969 56.2691 69.3599 57.92 67.8881C59.5679 66.4132 61.3433 65.8275 62.6391 66.0642C63.935 66.3009 65.2247 66.4739 66.3445 66.1218C67.4644 65.7668 67.8619 64.738 68.8482 65.0293C69.6403 65.2661 69.534 66.0065 69.5553 66.7743C69.5856 67.8395 69.2883 68.6559 69.2883 68.6559C69.2883 68.6559 70.2715 68.0702 71.2911 68.1825C72.323 68.2978 72.8541 68.7773 73.0301 69.542C73.2092 70.3068 72.7964 71.8424 72.2411 72.4463C71.6857 73.0472 70.842 73.8908 70.842 73.8908C70.842 73.8908 72.0924 75.214 71.1273 76.4188C70.1623 77.6266 69.0303 77.918 69.0303 77.918C69.0303 77.918 69.3277 79.7236 68.4355 80.5703C67.5432 81.414 66.7178 81.9997 64.1929 81.7751C61.668 81.5475 59.2432 80.9709 57.1825 81.2653C55.1219 81.5597 53.1494 82.3639 53.1494 82.3639L53.2101 73.8969Z" fill="#010100"/>
<path fill-rule="evenodd" clip-rule="evenodd" d="M55.0969 76.2978C54.8238 75.4026 54.326 73.8245 55.0028 72.5044C55.6826 71.1873 56.5687 69.8155 57.813 68.6107C59.0572 67.4029 60.5746 66.4925 62.0829 66.5289C63.5912 66.5684 64.5987 66.9477 65.9947 66.6473C67.3876 66.3468 67.6577 65.5426 68.4862 65.5426C69.3177 65.5426 69.078 66.3043 69.078 66.7565C69.078 67.2087 69.0659 68.3285 68.7655 68.9324C68.465 69.5364 67.8034 70.2647 66.7473 70.6774C65.6912 71.0932 64.5957 71.3208 63.3514 71.3208C62.1072 71.3208 60.9843 71.0568 60.9843 71.0568C61.3272 71.4331 61.9433 71.6455 62.6899 71.7791C60.4168 73.3207 58.426 77.0292 57.2819 79.7787C57.2819 79.7787 55.3822 77.2325 55.0969 76.2978Z" fill="#CCCCCC"/>
<path fill-rule="evenodd" clip-rule="evenodd" d="M63.6901 73.4726C63.5384 72.6047 64.3638 71.8885 65.08 71.6639C65.7962 71.4363 66.1755 71.5122 67.1558 71.1359C68.133 70.7565 68.4728 70.3043 68.8886 69.8916C69.3044 69.4758 69.9053 68.7991 70.7368 68.7596C71.5653 68.7232 71.7899 68.6838 72.1298 69.0237C72.4697 69.3636 72.6578 70.2679 72.3938 70.9083C72.1297 71.5486 71.0221 73.4574 68.8644 74.1433C66.1179 75.0173 63.8388 74.3406 63.6901 73.4726Z" fill="#CCCCCC"/>
<path fill-rule="evenodd" clip-rule="evenodd" d="M61.5544 76.4249C61.4603 75.821 62.398 74.7831 63.3388 74.7346C64.2796 74.686 64.6953 75.0927 66.237 75.117C67.7817 75.1413 69.1322 74.7528 69.6633 74.5373C70.1943 74.3188 70.4341 74.3006 70.6253 74.5889C70.8195 74.8803 71.1412 75.384 70.8286 75.9637C70.513 76.5433 69.2505 77.4871 68.1428 77.6297C67.0321 77.7754 65.4631 77.9909 64.4981 77.8968C63.533 77.7997 61.7304 77.5448 61.5544 76.4249Z" fill="#CCCCCC"/>
<path fill-rule="evenodd" clip-rule="evenodd" d="M60.0022 79.2962C60.1721 78.6923 61.3315 77.9366 62.5606 78.055C63.7927 78.1764 65.2918 78.5011 66.0626 78.4525C66.8365 78.404 68.4358 77.8638 68.7241 78.5011C68.891 78.8683 68.3296 80.3644 67.5618 80.7954C66.615 81.3264 65.8229 81.457 64.3298 81.3841C62.8336 81.3113 61.99 81.1959 60.9673 80.7165C60.1783 80.3462 59.8353 79.8971 60.0022 79.2962Z" fill="#CCCCCC"/>
<path fill-rule="evenodd" clip-rule="evenodd" d="M57.959 80.3696C58.6175 80.9492 59.1972 80.9188 60.2867 80.9735C60.2867 80.9735 59.2882 79.9629 59.622 79.0464C60.0924 77.7506 61.8253 77.702 61.8253 77.702C61.8253 77.702 60.7934 76.8614 61.2153 75.6596C61.6735 74.3516 63.628 74.1574 63.628 74.1574C63.0847 73.6992 62.9664 72.8707 63.6917 71.9238C61.3397 73.6142 58.7784 77.6322 57.959 80.3696Z" fill="#CCCCCC"/>
<path fill-rule="evenodd" clip-rule="evenodd" d="M55.7017 79.8569C60.7425 87.6562 70.8421 93.5011 76.6355 88.7123C72.5538 96.9092 70.9059 106.074 67.3947 109.403C62.973 113.591 48.7855 110.629 48.6581 101.033C48.5822 95.4859 53.7109 88.8337 55.7017 79.8569Z" fill="#010100"/>
<path fill-rule="evenodd" clip-rule="evenodd" d="M55.9451 80.9769C61.0495 88.1632 71.4224 93.125 76.4388 88.579C72.3571 96.7758 70.606 105.656 67.0311 109.185C63.3711 112.796 48.692 111.009 49.1563 99.8804C49.3748 94.6697 53.9543 89.9537 55.9451 80.9769Z" fill="#F2E8C6"/>
<path fill-rule="evenodd" clip-rule="evenodd" d="M73.383 96.3679L69.6864 102.825C68.0545 103.518 64.968 100.388 67.0429 97.0679C69.9146 92.4706 73.8119 95.8667 73.383 96.3679Z" fill="black"/>
<path fill-rule="evenodd" clip-rule="evenodd" d="M73.0653 96.6607L69.8723 102.285C68.8721 103.35 65.3262 100.773 67.2905 97.3025C69.727 93.0031 73.6521 95.7145 73.0653 96.6607Z" fill="#F2E8C6"/>
<path fill-rule="evenodd" clip-rule="evenodd" d="M70.9571 95.7436C72.9783 95.34 78.7079 92.6239 78.7079 92.6239C77.4788 94.7057 76.8112 96.9879 76.7323 99.4794C76.7323 99.4794 72.7719 101.215 70.7417 101.549C66.9907 102.162 66.8966 96.5509 70.9571 95.7436Z" fill="#010100"/>
<path d="M78.1779 104.4C80.3632 105.642 83.7941 103.296 85.8411 99.1594C87.8881 95.0227 87.776 90.6622 85.5908 89.4198C83.4055 88.1775 79.9746 90.5238 77.9276 94.6605C75.8806 98.7972 75.9927 103.158 78.1779 104.4Z" fill="#010100"/>
<path d="M79.0867 104.006C80.9099 105.041 83.875 102.817 85.7093 99.0369C87.5436 95.2571 87.5525 91.3535 85.7293 90.318C83.906 89.2824 80.941 91.5071 79.1067 95.2869C77.2724 99.0666 77.2634 102.97 79.0867 104.006Z" fill="#F2E8C6"/>
<path d="M82.4326 97.8886C82.6463 98.01 82.9938 97.7492 83.2088 97.3063C83.4237 96.8633 83.4248 96.4059 83.2111 96.2845C82.9974 96.1631 82.65 96.4239 82.435 96.8668C82.22 97.3098 82.219 97.7672 82.4326 97.8886Z" fill="black"/>
<path d="M80.8213 97.2706C81.035 97.392 81.3825 97.1313 81.5974 96.6883C81.8124 96.2453 81.8134 95.7879 81.5998 95.6665C81.3861 95.5452 81.0386 95.8059 80.8237 96.2488C80.6087 96.6918 80.6076 97.1493 80.8213 97.2706Z" fill="black"/>
<path d="M84.1416 98.6454C84.3553 98.7668 84.7028 98.5061 84.9177 98.0631C85.1327 97.6202 85.1338 97.1627 84.9201 97.0413C84.7064 96.92 84.3589 97.1807 84.144 97.6236C83.929 98.0666 83.928 98.5241 84.1416 98.6454Z" fill="black"/>
<path d="M83.3604 95.554C83.574 95.6754 83.9215 95.4147 84.1365 94.9717C84.3515 94.5287 84.3525 94.0713 84.1388 93.9499C83.9252 93.8285 83.5777 94.0893 83.3627 94.5322C83.1478 94.9752 83.1467 95.4327 83.3604 95.554Z" fill="black"/>
<path d="M81.5293 100.362C81.743 100.483 82.0905 100.223 82.3054 99.7797C82.5204 99.3368 82.5215 98.8793 82.3078 98.7579C82.0941 98.6366 81.7466 98.8973 81.5317 99.3403C81.3167 99.7832 81.3156 100.241 81.5293 100.362Z" fill="black"/>
<path d="M80.5772 102.765C80.7908 102.887 81.1383 102.626 81.3533 102.183C81.5683 101.74 81.5693 101.283 81.3556 101.161C81.142 101.04 80.7945 101.301 80.5795 101.744C80.3646 102.186 80.3635 102.644 80.5772 102.765Z" fill="black"/>
<path d="M84.2393 93.1157C84.453 93.237 84.8004 92.9763 85.0154 92.5333C85.2304 92.0904 85.2314 91.6329 85.0177 91.5115C84.8041 91.3902 84.4566 91.6509 84.2416 92.0939C84.0267 92.5368 84.0256 92.9943 84.2393 93.1157Z" fill="black"/>
<path d="M81.7488 95.0734C81.9625 95.1947 82.31 94.934 82.5249 94.491C82.7399 94.0481 82.7409 93.5906 82.5273 93.4693C82.3136 93.3479 81.9661 93.6086 81.7512 94.0516C81.5362 94.4945 81.5351 94.952 81.7488 95.0734Z" fill="black"/>
<path d="M69.6024 81.0582C69.7729 81.0602 70.1628 81.0645 70.4733 81.0679C70.7838 81.0712 70.8973 81.0724 70.7269 81.0704C70.5564 81.0684 70.1665 81.0641 69.856 81.0608C69.5455 81.0574 69.432 81.0563 69.6024 81.0582Z" fill="white"/>
<path d="M55.7783 84.4138C55.9946 84.5364 56.3463 84.2769 56.5637 83.8341C56.7812 83.3913 56.7821 82.9329 56.5658 82.8103C56.3494 82.6876 55.9978 82.9472 55.7803 83.39C55.5629 83.8328 55.562 84.2912 55.7783 84.4138Z" fill="black"/>
<path d="M84.9717 96.2071C85.1854 96.3284 85.5329 96.0677 85.7478 95.6248C85.9628 95.1818 85.9638 94.7243 85.7502 94.603C85.5365 94.4816 85.189 94.7423 84.9741 95.1853C84.7591 95.6283 84.758 96.0857 84.9717 96.2071Z" fill="black"/>
<path d="M83.1162 100.911C83.3299 101.033 83.6774 100.772 83.8924 100.329C84.1073 99.8861 84.1084 99.4286 83.8947 99.3073C83.681 99.1859 83.3335 99.4466 83.1186 99.8896C82.9036 100.333 82.9026 100.79 83.1162 100.911Z" fill="black"/>
<path d="M80.2354 99.8814C80.449 100.003 80.7965 99.742 81.0115 99.2991C81.2265 98.8561 81.2275 98.3987 81.0138 98.2773C80.8002 98.1559 80.4527 98.4166 80.2377 98.8596C80.0228 99.3026 80.0217 99.76 80.2354 99.8814Z" fill="black"/>
<path fill-rule="evenodd" clip-rule="evenodd" d="M69.2008 68.0913C69.2008 68.0913 73.1308 66.4343 76.1716 68.7953C79.5341 71.4113 71.2856 81.5505 71.2856 81.5505L70.6089 80.9678C70.6089 80.9678 78.3597 71.4022 75.7043 69.2809C72.9608 67.0868 69.043 68.8014 69.043 68.8014L69.2008 68.0913Z" fill="#010100"/>
<path fill-rule="evenodd" clip-rule="evenodd" d="M55.0674 71.9467C55.0674 71.9467 53.9233 70.9543 52.2056 71.185C50.488 71.4126 47.0921 73.0938 46.7491 77.1756C46.4062 81.2573 48.0845 84.3103 49.6474 85.6851C51.2133 87.0568 54.1024 86.3011 54.1024 86.3011L56.3056 79.2392C55.8291 79.8098 53.3679 74.1651 55.0674 71.9467Z" fill="black"/>
<path fill-rule="evenodd" clip-rule="evenodd" d="M54.46 72.2518C54.46 72.2518 53.9563 71.4415 52.2386 71.6722C50.5209 71.8998 47.5832 73.1835 47.2403 77.2652C46.8974 81.347 48.4543 84.0631 50.0172 85.4378C51.5831 86.8126 53.8288 85.8415 53.8288 85.8415L55.85 79.3319C55.1611 78.464 53.2188 74.9254 54.46 72.2518Z" fill="#832C24"/>
<path fill-rule="evenodd" clip-rule="evenodd" d="M83.6022 119.746C83.6022 119.746 84.9981 108.685 87.9085 104.145C90.8218 99.6017 91.5199 95.526 91.5199 91.3349C91.5199 87.1439 91.8173 80.1094 90.5882 75.0322C90.048 72.8047 87.0952 67.1145 86.8615 64.6685C86.6278 62.2255 87.7932 60.8265 85.3471 58.1498C82.9011 55.4702 80.3398 55.0058 77.6631 54.6568C74.9834 54.3078 69.0444 53.2578 69.0444 53.2578C69.0444 53.2578 75.8392 53.4915 76.3824 52.9088C76.9257 52.3261 74.5191 51.1638 72.3068 49.7648C70.0944 48.3688 59.4971 44.4084 59.4971 44.4084C59.4971 44.4084 69.2296 47.7012 70.5102 47.4645C71.6422 47.2581 68.8138 42.1961 68.8138 42.1961C68.8138 42.1961 69.9063 43.4161 70.8622 45.0822C71.7909 46.7027 72.5678 48.7603 73.4661 49.2459C75.3689 50.2838 76.3248 51.6372 76.4978 50.9301C76.8468 49.4917 77.6996 43.0307 76.6495 39.8867C75.6025 36.7426 70.5588 34.1631 70.5588 34.1631C70.5588 34.1631 75.9242 37.0492 76.4492 36.333C76.9742 35.6137 75.3325 32.2998 73.7028 29.8538C73.1626 29.0435 71.8364 26.5944 70.2249 24.6218C69.7424 24.0301 68.2918 23.0984 67.782 22.5126C64.8686 19.1592 62.7564 16.4614 62.7564 16.4614C62.7564 16.4614 68.2948 22.7949 69.6331 22.9314C70.9715 23.068 70.7924 17.2777 70.7924 17.2777C70.7924 17.2777 70.9715 19.4991 71.099 21.754C71.1718 23.0801 70.8895 24.4154 71.4479 25.3198C72.9623 27.7628 73.4478 28.9646 74.4766 29.1376C74.9804 29.2256 75.472 27.8296 76.1883 26.7887C76.9348 25.7022 77.8937 24.9617 77.8937 24.9617C77.8937 24.9617 75.7998 27.7567 76.4978 30.9007C77.1958 34.0447 78.2458 37.8868 78.3611 41.7318C78.4764 45.5738 77.1988 49.7496 78.1274 51.8618C78.9802 53.798 83.5627 55.9588 83.9451 54.3989C84.4003 52.5447 83.4838 41.8471 83.2532 37.5377C83.0195 33.2314 83.3685 31.8324 84.4154 28.4547C85.4624 25.0801 86.8918 25.4291 85.9298 22.983C85.4867 21.8572 85.1378 19.6994 84.0149 17.7572C82.889 15.8089 80.9862 14.076 79.7571 12.9683C77.2656 10.7196 81.9087 14.3795 82.452 13.8151C82.9952 13.2536 83.0195 9.59369 83.0195 9.59369C83.0195 9.59369 83.2076 14.6132 84.1393 16.3612C85.071 18.1092 86.2029 22.1879 86.8433 20.9285C87.2347 20.1516 88.479 17.6024 88.6641 14.419C88.7187 13.4752 88.3879 12.9805 88.2028 11.9547C87.9965 10.8015 87.9145 9.10813 87.6748 7.84567C86.8281 3.35119 88.3242 7.46025 88.4638 10.4586C88.5276 11.7787 89.1528 12.8045 89.3257 12.941C89.96 13.4418 91.5199 10.8743 91.5199 10.8743C91.5199 10.8743 90.0813 13.4782 89.265 16.3885C88.4486 19.2989 86.8706 23.6902 87.6991 23.9724C88.6429 24.2941 90.9493 22.455 92.0115 20.4126C92.3908 19.6903 92.0115 18.4795 92.2877 17.5872C93.0251 15.1867 93.7322 12.9683 93.7322 12.9683C93.7322 12.9683 93.3953 14.7346 93.2193 16.4917C93.1282 17.3961 92.7034 19.0197 93.1677 18.9256C93.9052 18.7799 95.7291 13.29 96.5788 11.5299C98.5301 7.47846 99.6712 5.05066 99.6712 5.05066C99.6712 5.05066 93.9932 17.4962 95.1251 17.9575C96.9945 18.7223 99.9018 12.3857 99.9018 12.3857C99.9018 12.3857 98.2722 17.8604 95.3618 19.2564C92.4515 20.6554 86.901 27.0982 86.5125 27.8751C86.1241 28.652 93.0342 23.9147 93.0342 23.9147C93.0342 23.9147 87.0739 28.5336 85.6961 30.9007C84.4761 32.9977 84.4155 34.8611 84.7645 38.1204C85.1135 41.3828 84.5308 50.1138 85.3471 52.5598C86.1635 55.0058 88.6095 58.1498 88.6095 58.1498C88.6095 58.1498 90.7096 52.0803 90.0055 48.0198C89.6201 45.7923 89.1891 41.3828 89.1891 41.3828C89.1891 41.3828 90.3879 46.6602 91.3499 45.7073C92.8278 44.2446 93.0342 34.0447 93.0342 34.0447C93.0342 34.0447 93.3164 39.7683 93.9749 39.1492C94.6365 38.5271 96.9916 30.3181 96.9916 30.3181C96.9916 30.3181 96.5515 33.4317 97.3405 32.9978C98.1387 32.5608 99.8624 29.7172 100.43 26.646C100.812 24.5672 100.202 21.8177 100.202 21.8177C100.202 21.8177 100.676 23.1985 101.453 24.7068C101.723 25.2349 102.873 24.4731 103.24 22.2365C103.386 21.3595 102.785 19.0379 102.833 18.006C102.97 15.1564 103.513 13.551 103.513 13.551C103.513 13.551 102.9 19.1926 104.199 18.8497C105.474 18.5159 108.402 9.94269 108.402 9.94269C108.888 9.90628 107.895 13.0139 106.763 15.9394C106.12 17.6024 104.6 20.276 104.739 20.5583C105.113 21.3018 109.568 18.5584 109.568 18.5584C109.568 18.5584 102.873 23.7235 101.771 26.9252C100.861 29.5745 99.2433 31.7565 99.5529 32.5304C99.8654 33.3073 103.395 32.2997 103.395 32.2997C103.395 32.2997 99.8139 33.104 98.5059 34.2784C97.0371 35.5985 94.6092 39.2979 94.591 40.2175C94.5758 41.137 98.4027 39.7956 98.4027 39.7956C98.4027 39.7956 96.3663 40.3692 94.7367 42.0808C93.7352 43.1308 91.3772 46.8241 92.3271 47.2126C93.28 47.601 99.7866 44.4084 99.7866 44.4084C99.7866 44.4084 94.1115 46.8666 92.6214 49.1366C91.0677 51.5037 90.7157 55.5612 90.4699 58.6142C90.1239 62.9539 87.0405 64.277 91.4015 70.2585C91.9538 71.0112 93.3984 63.3848 93.3984 63.3848C93.3984 63.3848 92.6154 73.4845 92.6154 76.8622C92.6154 80.2399 94.1934 86.9285 94.1934 86.9285C94.1934 86.9285 98.4725 82.6404 99.8715 79.73C101.268 76.8197 106.281 70.9656 107.122 67.9309C107.725 65.755 107.589 65.7185 104.909 61.5245C102.233 57.3335 102.582 50.3475 102.582 50.3475C102.582 50.3475 103.471 60.3167 105.377 59.3121C106.275 58.8387 108.053 53.0272 108.053 53.0272C108.053 53.0272 106.223 59.7522 106.818 62.1891C107.376 64.4804 108.393 65.2057 109.431 64.9416C110.733 64.6139 114.575 62.4562 115.039 60.3622C115.507 58.2652 119.115 50.5812 119.115 50.5812C119.115 50.5812 116.08 58.5747 116.669 59.6642C116.824 59.9464 118.135 59.7886 118.805 58.6476C120.022 56.5748 121.84 54.7631 121.84 54.7631C121.84 54.7631 119.825 57.3426 120.329 58.1347C121.051 59.2697 125.986 53.6068 125.986 53.6068C125.986 53.6068 124.523 55.9648 122.48 57.7219C120.817 59.1513 118.496 59.9889 118.462 60.4411C118.384 61.4517 125.755 59.8979 125.755 59.8979C125.755 59.8979 118.824 61.1816 116.438 62.2256C114.481 63.0783 110.945 65.5486 111.197 65.9158C111.449 66.286 118.129 64.6139 118.129 64.6139C118.129 64.6139 111.604 66.5136 109.801 67.6972C108.493 68.553 107.122 71.5392 107.122 71.5392C107.122 71.5392 109.219 69.9095 109.568 73.2872C109.719 74.753 110.296 78.9137 110.296 78.9137L109.971 81.4022C109.971 81.4022 109.565 74.2674 108.26 72.395C107.938 71.9307 107.437 72.5953 107.161 72.8715C106.499 73.5331 104.005 77.8181 101.292 81.651C98.2752 85.9149 95.0341 89.8388 94.7094 92.1544C94.3179 94.9433 94.0964 98.5152 94.0964 98.5152L98.2661 97.1313C98.2661 97.1313 95.5591 98.5698 94.7245 99.6593C93.9233 100.7 94.2936 100.457 92.664 103.95C91.0343 107.443 90.3545 110.782 90.0055 114.39C89.6565 118.001 89.5382 119.164 89.5382 119.164C89.3106 121.646 83.5536 122.035 83.6022 119.746Z" fill="black"/>
<path fill-rule="evenodd" clip-rule="evenodd" d="M84.3895 119.51C84.3895 119.51 85.6672 108.864 88.5775 104.324C91.4909 99.7813 92.0219 95.6206 92.0219 91.4266C92.0219 87.2356 92.289 80.1099 91.0599 75.0328C90.5197 72.8053 87.5669 67.1576 87.3332 64.7116C87.0995 62.2655 88.1799 60.5357 85.7369 57.8591C83.2909 55.1794 80.5627 54.5481 77.883 54.1991C75.2064 53.8501 73.1033 53.6347 73.1033 53.6347C73.1033 53.6347 76.5173 53.6165 77.0605 53.0338C77.6037 52.4511 74.6146 50.7881 72.4022 49.3891C70.1899 47.9931 65.1855 46.3725 65.1855 46.3725C65.1855 46.3725 69.501 47.9779 70.7786 47.7412C71.9136 47.5348 70.1929 44.5243 70.1929 44.5243C70.1929 44.5243 70.815 45.6169 71.771 47.2799C72.6996 48.9005 72.2596 48.9733 73.1579 49.4619C75.0637 50.4967 76.6599 52.002 76.8329 51.2919C77.1789 49.8564 78.0105 42.9038 76.9635 39.7598C75.9134 36.6158 73.4947 35.8055 73.4947 35.8055C73.4947 35.8055 76.2806 37.3077 76.8057 36.5884C77.3276 35.8692 75.6888 32.3428 74.0592 29.8968C73.519 29.0865 71.8742 26.2793 70.2627 24.3067C69.7802 23.715 68.4752 23.0321 67.9654 22.4434C65.055 19.093 66.0838 20.1856 66.0838 20.1856C66.0838 20.1856 68.3963 23.023 69.7346 23.1596C71.073 23.2962 70.8393 20.1795 70.8393 20.1795C70.8393 20.1795 70.8484 19.6363 70.9759 21.8911C71.0487 23.2173 70.7271 24.4069 71.2885 25.3113C72.8028 27.7573 73.6313 29.2413 74.6601 29.4173C75.1638 29.5022 75.616 28.0425 76.3292 27.0016C77.0788 25.9152 77.097 26.0942 77.097 26.0942C77.097 26.0942 75.4916 27.6723 76.1926 30.8163C76.8906 33.9603 77.9801 37.7811 78.0954 41.6261C78.2138 45.4682 76.9331 49.8989 77.8648 52.0111C78.7176 53.9473 83.8311 56.2355 84.2135 54.6787C84.6687 52.8214 83.8978 42.0085 83.6642 37.6992C83.4335 33.3898 83.7279 32.0211 84.7749 28.6434C85.825 25.2657 87.2513 25.5085 86.2893 23.0625C85.8462 21.9366 85.2332 19.3783 84.1103 17.436C82.9814 15.4877 82.4108 15.1175 81.1848 14.0098C78.6902 11.7611 82.1104 14.6987 82.6536 14.1373C83.1969 13.5728 83.1119 12.3407 83.1119 12.3407C83.1119 12.3407 83.0876 14.8808 84.0193 16.6288C84.951 18.3738 86.2407 22.668 86.881 21.4086C87.2756 20.6347 88.7596 17.6303 88.9447 14.4468C88.9993 13.503 88.5653 12.9416 88.3802 11.9158C88.1738 10.7626 88.1617 9.84613 87.9219 8.58367C87.3059 5.35772 88.2012 7.47598 88.3408 10.4713C88.4045 11.7944 89.1116 13.0235 89.2845 13.1601C89.9188 13.6608 90.9051 11.9796 90.9051 11.9796C90.9051 11.9796 89.7732 13.6365 88.9568 16.5499C88.1435 19.4603 86.699 24.1702 87.5244 24.4524C88.4683 24.7741 91.1206 22.6164 92.1858 20.574C92.5621 19.8487 92.2161 18.5893 92.4923 17.697C93.2298 15.2965 93.2267 15.3056 93.2267 15.3056C93.2267 15.3056 93.2176 14.9536 93.0416 16.7107C92.9506 17.6151 92.6349 19.4147 93.0993 19.3237C93.7821 19.1902 96.7046 11.667 96.7046 11.667C96.7046 11.667 94.1129 18.0369 94.9262 18.307C96.4557 18.8108 98.2371 15.6941 98.2371 15.6941C98.2371 15.6941 97.351 17.9884 95.081 19.0445C92.1524 20.4071 86.3257 27.2839 86.1254 28.2762C85.9524 29.126 89.846 26.2885 89.846 26.2885C89.846 26.2885 86.8477 28.2944 85.4699 30.6616C84.2499 32.7586 84.083 34.9679 84.432 38.2272C84.781 41.4896 84.2893 50.3511 85.1057 52.794C85.919 55.2401 88.7474 59.0244 88.7474 59.0244C88.7474 59.0244 91.0963 52.1325 90.3923 48.072C90.0069 45.8445 89.4758 42.8825 89.4758 42.8825C89.4758 42.8825 90.3892 47.028 91.3512 46.0751C92.8261 44.6154 93.1296 36.8737 93.1296 36.8737C93.1296 36.8737 93.3846 39.9874 94.0431 39.3683C94.7047 38.7461 96.7197 31.9726 96.7197 31.9726C96.7197 31.9726 96.6591 33.6508 97.4511 33.2168C98.2493 32.7798 100.028 30.1456 100.595 27.0744C100.981 24.9956 100.644 23.7969 100.644 23.7969C100.644 23.7969 100.689 23.5754 101.466 25.0837C101.736 25.6117 103.126 24.5738 103.493 22.3402C103.636 21.4632 102.947 19.1355 102.999 18.1037C103.135 15.2541 103.293 15.4786 103.293 15.4786C103.293 15.4786 102.968 19.3692 104.267 19.0293C105.542 18.6955 108.252 10.7899 108.252 10.7899C108.179 11.6548 107.784 12.9598 106.652 15.8853C106.009 17.5483 104.392 20.5345 104.531 20.8137C104.904 21.5573 108.012 19.6514 108.012 19.6514C108.012 19.6514 102.732 23.5177 101.63 26.7224C100.723 29.3687 99.0019 31.921 99.3023 32.7009C99.5147 33.2532 100.856 32.9224 100.856 32.9224C100.856 32.9224 98.9654 33.5537 98.313 34.1546C96.8654 35.499 94.3769 39.4077 94.3587 40.3273C94.3435 41.2468 96.574 40.4487 96.574 40.4487C96.574 40.4487 95.6971 40.7946 94.5044 41.9994C93.4847 43.0282 91.1874 46.9461 92.1373 47.3345C93.0871 47.723 94.7047 46.8642 94.7047 46.8642C94.7047 46.8642 93.2844 47.5803 92.3679 48.9794C90.8172 51.3465 90.1464 55.8531 89.9006 58.9061C89.5547 63.2458 86.5928 64.6934 91.5425 71.0512C92.113 71.7886 92.9536 66.6386 92.9536 66.6386C92.9536 66.6386 92.2526 73.4426 92.2526 76.8203C92.2526 80.1979 94.0249 87.9366 94.0249 87.9366C94.0249 87.9366 98.8228 82.9474 100.219 80.0371C101.618 77.1268 106.561 71.0754 107.402 68.0407C108.003 65.8617 107.806 65.7494 105.205 61.5099C102.82 57.6254 102.932 53.7348 102.932 53.7348C102.932 53.7348 103.766 60.5327 105.338 59.8104C106.258 59.3855 107.347 55.586 107.347 55.586C107.347 55.586 106.067 59.862 106.662 62.2989C107.22 64.5902 108.358 65.4733 109.399 65.2093C110.698 64.8785 114.804 62.5569 115.268 60.4599C115.736 58.3628 118.036 53.3342 118.036 53.3342C118.036 53.3342 115.878 58.809 116.47 59.8984C116.625 60.1837 118.245 60.0046 118.916 58.8636C120.136 56.7908 120.74 56.19 120.74 56.19C120.74 56.19 119.729 57.6042 120.242 58.3871C120.849 59.3097 124.318 55.6194 124.318 55.6194C124.318 55.6194 124.266 55.9957 122.224 57.7528C120.561 59.1822 118.112 60.0289 118.075 60.4811C118.006 61.34 120.518 60.8483 120.518 60.8483C120.442 60.9909 118.943 61.1639 116.003 62.1077C113.966 62.7602 110.567 65.7646 110.822 66.1318C111.074 66.5021 118.142 64.6145 118.142 64.6145C118.142 64.6145 111.508 66.326 109.705 67.5096C108.401 68.3654 106.574 72.1194 106.574 72.1194C106.574 72.1194 109.059 70.0679 109.408 73.4426C109.56 74.9114 110.152 78.9021 110.152 78.9021L110.015 79.5424C110.015 79.5424 109.699 73.9949 108.394 72.1194C108.076 71.6581 107.205 72.4411 106.929 72.7203C106.267 73.3788 103.803 77.4272 101.093 81.2601C98.0733 85.524 94.65 89.7483 94.3253 92.0639C93.9338 94.8528 93.6819 99.1591 93.6819 99.1591L96.5073 98.0181C96.5073 98.0181 95.2964 98.3883 94.4619 99.4748C93.6607 100.516 93.773 100.1 92.1403 103.593C90.5106 107.086 89.8309 110.424 89.4819 114.032C89.1329 117.644 89.1965 118.569 89.1965 118.569C88.9659 121.052 84.341 121.798 84.3895 119.51Z" fill="#7D413B"/>
<path fill-rule="evenodd" clip-rule="evenodd" d="M53.9795 51.3127C57.339 53.4825 60.8259 55.2124 64.4828 56.3474C64.4828 56.3474 65.0928 53.3945 67.6086 50.9637C70.1274 48.5328 71.2503 48.1687 73.2805 44.6544C75.0103 41.6591 75.4231 37.5926 75.4231 37.5926C71.8542 36.0934 69.2109 34.0176 66.8286 31.7749C66.8286 31.7749 67.0441 38.0781 65.2657 40.3724C62.9988 43.2949 60.6984 43.7501 58.2676 46.0079C55.8367 48.2658 53.9795 51.3127 53.9795 51.3127Z" fill="black"/>
<path fill-rule="evenodd" clip-rule="evenodd" d="M54.5166 51.2246C57.8761 53.3975 60.5952 54.7297 64.2521 55.8647C64.2521 55.8647 64.8894 53.1395 67.4083 50.7087C69.9241 48.2778 70.9316 48.026 72.9649 44.5117C74.6947 41.5194 75.1379 37.8777 75.1379 37.8777C71.5659 36.3785 69.5478 34.8126 67.1655 32.5729C67.1655 32.5729 67.4113 38.2479 65.633 40.5422C63.363 43.4647 60.9807 43.9776 58.5498 46.2354C56.119 48.4933 54.5166 51.2246 54.5166 51.2246Z" fill="#F2E8C6"/>
<path fill-rule="evenodd" clip-rule="evenodd" d="M81.762 18.403C82.6209 14.8432 81.4525 11.3533 78.0141 7.9422C78.0141 7.9422 70.2087 13.0892 65.9601 14.8432C59.5537 17.4896 56.5826 14.6702 56.5826 14.6702C56.2397 18.8309 58.1213 22.6243 62.2273 26.0445C62.2273 26.0445 65.611 25.7836 67.8689 24.4816C70.1267 23.1797 73.0917 20.2967 75.7836 19.7747C78.4754 19.2558 81.762 18.403 81.762 18.403Z" fill="black"/>
<path fill-rule="evenodd" clip-rule="evenodd" d="M81.4156 18.1054C82.2101 14.7949 81.0984 11.7186 77.9205 8.54645C77.9205 8.54645 70.0459 13.5305 66.1128 15.1646C60.1893 17.6256 57.0395 15.4299 57.0395 15.4299C56.7251 19.2992 58.693 22.4262 62.4885 25.6069C62.4885 25.6069 65.877 25.1666 67.9656 23.9559C70.0543 22.7451 72.7971 20.064 75.2872 19.5786C77.7773 19.096 81.4156 18.1054 81.4156 18.1054Z" fill="#F2E8C6"/>
<path fill-rule="evenodd" clip-rule="evenodd" d="M105.029 82.3071C105.029 82.3071 107.548 86.3009 108.416 88.9077C109.284 91.5115 110.067 96.2003 111.63 98.7191C113.193 101.235 115.536 103.059 115.536 103.059L121.787 95.5933C121.787 95.5933 117.448 92.0335 116.319 89.1687C115.19 86.3008 112.583 75.7095 112.583 75.7095L105.029 82.3071Z" fill="black"/>
<path fill-rule="evenodd" clip-rule="evenodd" d="M105.542 82.3681C105.542 82.3681 107.912 86.1251 108.78 88.7289C109.648 91.3358 110.37 95.9334 111.933 98.4523C113.496 100.971 115.605 102.616 115.605 102.616L121.38 95.6815C121.38 95.6815 117.189 92.2492 116.06 89.3844C114.932 86.5196 112.473 76.3016 112.473 76.3016L105.542 82.3681Z" fill="#F2E8C6"/>
<path fill-rule="evenodd" clip-rule="evenodd" d="M98.3398 39.0972L105.368 30.0385C105.368 30.0385 110.752 32.1234 113.095 31.6894C115.441 31.2524 117.177 34.4662 119.519 36.1171C121.865 37.765 122.733 38.4599 122.733 38.4599C120.591 39.8013 118.475 41.5281 116.482 44.7995C116.482 44.7995 110.664 41.1517 107.016 40.1958C103.371 39.2429 98.3398 39.0972 98.3398 39.0972Z" fill="black"/>
<path fill-rule="evenodd" clip-rule="evenodd" d="M99.0234 38.8403L105.481 30.4947C105.481 30.4947 110.637 32.4643 112.983 32.0303C115.326 31.5963 116.95 34.8101 119.293 36.458C121.638 38.1089 122.136 38.5459 122.136 38.5459C119.994 39.8903 118.221 41.2165 116.224 44.488C116.224 44.488 110.865 40.8978 107.217 39.9419C103.57 38.9859 99.0234 38.8403 99.0234 38.8403Z" fill="#F2E8C6"/>
<path fill-rule="evenodd" clip-rule="evenodd" d="M117.416 38.1137C112.501 36.1431 113.613 33.3759 110.781 34.0856L110.176 35.0455C112.386 33.7565 112.193 36.7995 116.709 38.4412L117.416 38.1137Z" fill="black"/>
<path fill-rule="evenodd" clip-rule="evenodd" d="M114.883 38.2191C112.117 36.9759 111.952 35.0874 110.09 35.6024L109.382 36.4326C110.911 35.6371 112.096 37.7801 114.216 38.7471L114.883 38.2191Z" fill="black"/>
<path fill-rule="evenodd" clip-rule="evenodd" d="M113.865 39.2696C111.902 37.663 110.314 36.6614 109.358 36.8542L108.677 37.6553C110.197 37.5498 111.851 38.8832 113.062 39.9086L113.865 39.2696Z" fill="black"/>
<path fill-rule="evenodd" clip-rule="evenodd" d="M100.246 59.3003C100.246 59.3003 100.094 53.7557 102.746 48.7271C106.173 42.2297 112.057 38.0569 112.057 38.0569C113.468 40.9764 115.262 43.5134 118.306 44.8002C118.306 44.8002 114.388 46.9973 111.936 52.3021C109.587 57.3762 110.491 61.0361 110.491 61.0361C106.922 59.537 103.517 59.0211 100.246 59.3003Z" fill="black"/>
<path fill-rule="evenodd" clip-rule="evenodd" d="M100.66 58.8021C100.66 58.8021 100.545 53.9314 103.194 48.9058C106.623 42.4053 111.974 38.5208 111.974 38.5208C113.385 41.4403 114.611 43.513 117.652 44.7998C117.652 44.7998 114.089 46.8543 111.637 52.159C109.291 57.2332 110.016 60.4652 110.016 60.4652C106.447 58.966 103.931 58.5229 100.66 58.8021Z" fill="#F2E8C6"/>
<path fill-rule="evenodd" clip-rule="evenodd" d="M79.1016 0.234621C79.1016 0.234621 85.3046 -0.496747 86.7674 0.623079C88.2332 1.74594 87.8811 6.95966 87.8811 6.95966C87.8811 6.95966 83.5657 6.02494 82.0999 4.90208C80.6372 3.78226 79.1016 0.234621 79.1016 0.234621Z" fill="black"/>
<path fill-rule="evenodd" clip-rule="evenodd" d="M79.7363 0.601429C79.7363 0.601429 85.1888 -0.0271458 86.4745 0.93529C87.7629 1.90033 87.4535 6.38127 87.4535 6.38127C87.4535 6.38127 83.6603 5.57793 82.3719 4.61288C81.0861 3.65045 79.7363 0.601429 79.7363 0.601429Z" fill="#468930"/>
<path fill-rule="evenodd" clip-rule="evenodd" d="M80.249 0.971985C83.8968 2.14037 85.5568 2.99921 87.0226 5.87313C87.0226 5.87313 85.9848 4.04923 84.3126 2.86871C82.6162 1.66998 80.249 0.971985 80.249 0.971985Z" fill="black"/>
<path fill-rule="evenodd" clip-rule="evenodd" d="M116.011 16.3767C116.011 16.3767 113.962 20.7031 112.645 21.1912C111.326 21.6801 108.108 19.305 108.108 19.305C108.108 19.305 110.464 16.8895 111.784 16.4007C113.1 15.9125 116.011 16.3767 116.011 16.3767Z" fill="black"/>
<path fill-rule="evenodd" clip-rule="evenodd" d="M115.519 16.6294C115.519 16.6294 113.711 20.4282 112.568 20.8666C111.423 21.3056 108.661 19.2592 108.661 19.2592C108.661 19.2592 110.719 17.1274 111.864 16.6884C113.006 16.25 115.519 16.6294 115.519 16.6294Z" fill="#468930"/>
<path fill-rule="evenodd" clip-rule="evenodd" d="M115.063 16.8125C112.833 18.7026 111.607 19.4279 109.162 19.1964C109.162 19.1964 110.758 19.2734 112.195 18.6728C113.655 18.0639 115.063 16.8125 115.063 16.8125Z" fill="black"/>
<path fill-rule="evenodd" clip-rule="evenodd" d="M102.583 43.6594C102.583 43.6594 100.534 47.9858 99.2176 48.4739C97.8982 48.9628 94.6806 46.5877 94.6806 46.5877C94.6806 46.5877 97.0367 44.1723 98.3561 43.6834C99.6724 43.1953 102.583 43.6594 102.583 43.6594Z" fill="black"/>
<path fill-rule="evenodd" clip-rule="evenodd" d="M102.092 43.9121C102.092 43.9121 100.283 47.7109 99.1408 48.1493C97.9957 48.5883 95.2332 46.5419 95.2332 46.5419C95.2332 46.5419 97.2911 44.4101 98.4362 43.9711C99.5785 43.5327 102.092 43.9121 102.092 43.9121Z" fill="#468930"/>
<path fill-rule="evenodd" clip-rule="evenodd" d="M101.636 44.0952C99.4055 45.9853 98.1797 46.7106 95.7341 46.4791C95.7341 46.4791 97.3298 46.5561 98.7677 45.9555C100.227 45.3466 101.636 44.0952 101.636 44.0952Z" fill="black"/>
<path fill-rule="evenodd" clip-rule="evenodd" d="M79.3016 61.1841C79.3016 61.1841 81.3509 65.5105 82.6671 65.9987C83.9865 66.4875 87.2042 64.1124 87.2042 64.1124C87.2042 64.1124 84.848 61.697 83.5286 61.2081C82.2124 60.72 79.3016 61.1841 79.3016 61.1841Z" fill="black"/>
<path fill-rule="evenodd" clip-rule="evenodd" d="M79.7931 61.4368C79.7931 61.4368 81.6017 65.2356 82.744 65.674C83.8891 66.113 86.6515 64.0667 86.6515 64.0667C86.6515 64.0667 84.5937 61.9349 83.4486 61.4958C82.3063 61.0574 79.7931 61.4368 79.7931 61.4368Z" fill="#468930"/>
<path fill-rule="evenodd" clip-rule="evenodd" d="M80.249 61.62C82.4793 63.51 83.705 64.2353 86.1506 64.0039C86.1506 64.0039 84.555 64.0808 83.117 63.4802C81.6575 62.8713 80.249 61.62 80.249 61.62Z" fill="black"/>
<path d="M65.2289 22.6028C66.3592 21.9582 66.6966 20.4124 65.9824 19.1502C65.2682 17.888 63.7729 17.3873 62.6425 18.0319C61.5121 18.6765 61.1747 20.2223 61.8889 21.4845C62.6031 22.7467 64.0985 23.2473 65.2289 22.6028Z" fill="black"/>
<path d="M64.2579 51.1614C64.9492 50.0829 64.5056 48.5716 63.267 47.7858C62.0284 47 60.4638 47.2373 59.7724 48.3159C59.081 49.3944 59.5246 50.9057 60.7632 51.6915C62.0018 52.4773 63.5665 52.24 64.2579 51.1614Z" fill="black"/>
<path d="M105.594 37.892C106.5 38.4436 107.842 37.8662 108.591 36.6024C109.339 35.3386 109.211 33.867 108.304 33.3154C107.397 32.7638 106.055 33.3411 105.307 34.6049C104.558 35.8687 104.687 37.3404 105.594 37.892Z" fill="black"/>
<path d="M108.244 55.9803C108.89 54.9139 108.48 53.5275 107.328 52.8835C106.176 52.2396 104.72 52.582 104.074 53.6483C103.429 54.7146 103.839 56.1011 104.99 56.7451C106.142 57.389 107.599 57.0466 108.244 55.9803Z" fill="black"/>
<path d="M108.44 84.7524C109.139 85.7079 110.673 85.7772 111.866 84.9074C113.059 84.0375 113.46 82.5577 112.76 81.6022C112.061 80.6468 110.526 80.5773 109.333 81.4472C108.14 82.3171 107.74 83.7969 108.44 84.7524Z" fill="black"/>
<path fill-rule="evenodd" clip-rule="evenodd" d="M65.4876 19.4864C66.0506 20.5017 65.7932 21.7256 64.9127 22.2199C64.0322 22.7143 62.8619 22.2919 62.2988 21.2767C61.7358 20.2614 61.9932 19.0375 62.8737 18.5431C63.7542 18.0488 64.9245 18.4712 65.4876 19.4864ZM63.9785 21.6933C63.9481 21.7252 63.919 21.7581 63.8902 21.7914C63.8101 21.8846 63.7336 21.9814 63.6589 22.0797C64.0571 22.1927 64.4813 22.1608 64.852 21.9527C65.2063 21.7538 65.451 21.4288 65.5712 21.0511C65.403 21.0563 65.1806 21.0912 65.1806 21.0912C64.9353 21.1671 64.8378 21.148 64.8378 21.148C64.7475 21.1516 64.5713 20.8053 64.5713 20.8053C64.671 20.7285 64.458 20.3585 64.458 20.3585C64.5643 20.3697 64.508 20.2538 64.508 20.2538C64.4883 20.2088 64.4648 20.1188 64.4648 20.1188C64.3932 19.814 64.3195 19.9379 64.3195 19.9379C64.2376 19.6477 64.0894 19.4419 64.0894 19.4419C64.0155 19.3395 63.9195 19.2738 63.8024 19.2559C63.7628 19.2498 63.7229 19.249 63.6838 19.253C63.6307 19.2584 63.5724 19.2581 63.521 19.2693C63.4791 19.2783 63.4387 19.2925 63.3995 19.3091C63.3564 19.3276 63.3137 19.3489 63.2743 19.3744C63.2361 19.3959 63.233 19.4331 63.233 19.4331C63.2319 19.4448 63.1882 19.4829 63.1804 19.4953C63.1659 19.5173 63.1527 19.5402 63.1405 19.5636C63.1094 19.6234 63.0889 19.6897 63.0641 19.753C63.0449 19.8024 63.0105 19.8476 63.0086 19.9042C63.0069 19.9537 63.0189 20.0042 63.0361 20.0517C63.0559 20.106 63.0834 20.1676 63.12 20.2131C63.1624 20.266 63.3213 20.519 63.3213 20.519C63.2309 20.5462 63.3487 20.654 63.3487 20.654C63.3785 20.6698 63.4754 20.7922 63.4754 20.7922C63.6041 20.9766 63.6448 20.8505 63.6448 20.8505C63.8228 21.2047 63.9374 21.1641 63.9374 21.1641C64.0636 21.3585 64.0943 21.4947 64.0943 21.4947C64.1103 21.5839 64.0277 21.6416 63.9785 21.6933Z" fill="url(#paint0_linear)"/>
<path fill-rule="evenodd" clip-rule="evenodd" d="M63.0841 48.0402C64.1619 48.7067 64.5602 50.0056 63.9738 50.9411C63.3874 51.8766 62.0381 52.0946 60.9604 51.4281C59.8826 50.7616 59.4842 49.4627 60.0707 48.5272C60.6571 47.5917 62.0063 47.3737 63.0841 48.0402ZM62.7968 50.9351C62.7843 50.9815 62.7737 51.0282 62.7636 51.075C62.7357 51.206 62.7131 51.3384 62.6931 51.4713C63.136 51.3679 63.5274 51.1132 63.7743 50.7194C64.0103 50.3429 64.0742 49.9047 63.9905 49.4823C63.8314 49.5763 63.6358 49.7271 63.6358 49.7271C63.4398 49.929 63.3359 49.9625 63.3359 49.9625C63.2509 50.0136 62.8985 49.7779 62.8985 49.7779C62.9539 49.6522 62.5537 49.4135 62.5537 49.4135C62.6618 49.3678 62.5465 49.2875 62.5465 49.2875C62.5037 49.2552 62.4336 49.1822 62.4336 49.1822C62.2038 48.9304 62.1983 49.0872 62.1983 49.0872C61.9663 48.8548 61.7151 48.7378 61.7151 48.7378C61.5899 48.6796 61.4628 48.6679 61.3407 48.7129C61.2993 48.7281 61.2605 48.7484 61.225 48.7729C61.1768 48.8061 61.1205 48.8367 61.0769 48.8745C61.0414 48.9053 61.01 48.9401 60.981 48.9767C60.9493 49.017 60.9194 49.0598 60.895 49.1049C60.8695 49.1456 60.8862 49.1825 60.8862 49.1825C60.8914 49.1942 60.8694 49.2535 60.8684 49.2695C60.8661 49.298 60.8655 49.3267 60.8661 49.3555C60.8677 49.4288 60.8829 49.5025 60.8926 49.5757C60.9001 49.6328 60.8909 49.694 60.919 49.7488C60.9434 49.7967 60.9817 49.8383 61.0233 49.8743C61.071 49.9154 61.13 49.9594 61.1892 49.9833C61.2579 50.0111 61.5444 50.1673 61.5444 50.1673C61.4718 50.241 61.642 50.2811 61.642 50.2811C61.679 50.2803 61.837 50.3454 61.837 50.3454C62.0581 50.4524 62.0308 50.3111 62.0308 50.3111C62.389 50.5534 62.4778 50.4542 62.4778 50.4542C62.7019 50.5721 62.8034 50.6852 62.8034 50.6852C62.8659 50.7615 62.8168 50.86 62.7968 50.9351Z" fill="url(#paint1_linear)"/>
<path fill-rule="evenodd" clip-rule="evenodd" d="M108.358 36.3736C107.762 37.4818 106.656 38.0259 105.888 37.5887C105.12 37.1515 104.98 35.8985 105.576 34.7902C106.172 33.682 107.278 33.138 108.046 33.5752C108.814 34.0124 108.954 35.2654 108.358 36.3736ZM105.931 36.4706C105.892 36.4647 105.853 36.4605 105.814 36.4569C105.705 36.4471 105.594 36.4426 105.483 36.4406C105.556 36.8479 105.757 37.1869 106.081 37.3709C106.39 37.5469 106.757 37.5516 107.115 37.4182C107.041 37.2792 106.92 37.1127 106.92 37.1127C106.757 36.9525 106.732 36.8582 106.732 36.8582C106.692 36.784 106.902 36.4193 106.902 36.4193C107.006 36.4559 107.22 36.0454 107.22 36.0454C107.254 36.1423 107.326 36.0225 107.326 36.0225C107.354 35.9779 107.418 35.9019 107.418 35.9019C107.637 35.6516 107.506 35.6664 107.506 35.6664C107.709 35.4165 107.815 35.1631 107.815 35.1631C107.868 35.0368 107.882 34.9147 107.849 34.8045C107.837 34.7672 107.821 34.7329 107.802 34.7024C107.775 34.6608 107.752 34.6114 107.721 34.5747C107.696 34.5449 107.668 34.5196 107.638 34.4968C107.605 34.4718 107.57 34.4489 107.533 34.4315C107.5 34.4125 107.468 34.433 107.468 34.433C107.458 34.4395 107.409 34.4262 107.396 34.4273C107.372 34.4287 107.347 34.4318 107.323 34.4361C107.262 34.447 107.199 34.4708 107.137 34.4893C107.089 34.5037 107.038 34.5028 106.99 34.5365C106.949 34.5658 106.913 34.6074 106.881 34.6515C106.845 34.702 106.806 34.7637 106.784 34.823C106.759 34.8918 106.618 35.1836 106.618 35.1836C106.558 35.1241 106.519 35.2908 106.519 35.2908C106.518 35.3259 106.459 35.4841 106.459 35.4841C106.361 35.7077 106.481 35.6637 106.481 35.6637C106.266 36.0347 106.346 36.1063 106.346 36.1063C106.24 36.3342 106.141 36.4449 106.141 36.4449C106.075 36.514 105.994 36.48 105.931 36.4706Z" fill="url(#paint2_linear)"/>
<path fill-rule="evenodd" clip-rule="evenodd" d="M107.156 53.2464C108.171 53.8051 108.558 54.9785 108.021 55.8671C107.483 56.7557 106.223 57.0231 105.208 56.4644C104.192 55.9057 103.805 54.7323 104.343 53.8437C104.881 52.9551 106.141 52.6877 107.156 53.2464ZM106.92 55.9202C106.909 55.9634 106.899 56.0068 106.89 56.0503C106.866 56.172 106.846 56.2948 106.829 56.4179C107.242 56.3009 107.605 56.0474 107.831 55.6733C108.048 55.3157 108.103 54.91 108.02 54.5261C107.872 54.6204 107.691 54.7687 107.691 54.7687C107.51 54.9639 107.413 54.9998 107.413 54.9998C107.334 55.051 107.002 54.852 107.002 54.852C107.052 54.7337 106.675 54.5343 106.675 54.5343C106.776 54.487 106.667 54.419 106.667 54.419C106.627 54.3914 106.56 54.3278 106.56 54.3278C106.343 54.108 106.339 54.2522 106.339 54.2522C106.12 54.0503 105.883 53.9553 105.883 53.9553C105.766 53.9081 105.647 53.9036 105.533 53.9511C105.495 53.9671 105.458 53.9877 105.426 54.012C105.381 54.0449 105.329 54.0758 105.288 54.1127C105.255 54.1427 105.226 54.1763 105.2 54.2113C105.17 54.2499 105.143 54.2907 105.121 54.3334C105.097 54.372 105.113 54.4051 105.113 54.4051C105.118 54.4156 105.098 54.4712 105.098 54.4859C105.096 54.5122 105.096 54.5386 105.096 54.565C105.099 54.6322 105.114 54.6992 105.124 54.766C105.131 54.8181 105.123 54.8748 105.15 54.9237C105.174 54.9665 105.21 55.0028 105.249 55.0338C105.294 55.0692 105.35 55.1067 105.406 55.1257C105.47 55.1478 105.74 55.2771 105.74 55.2771C105.673 55.3484 105.832 55.3767 105.832 55.3767C105.867 55.3742 106.015 55.4261 106.015 55.4261C106.223 55.5135 106.196 55.385 106.196 55.385C106.534 55.5897 106.616 55.4942 106.616 55.4942C106.827 55.5913 106.923 55.6902 106.923 55.6902C106.982 55.7572 106.938 55.8501 106.92 55.9202Z" fill="url(#paint3_linear)"/>
<path fill-rule="evenodd" clip-rule="evenodd" d="M111.77 84.4782C110.803 85.3178 109.523 85.427 108.91 84.7221C108.298 84.0171 108.585 82.7648 109.552 81.9251C110.518 81.0854 111.799 80.9762 112.411 81.6812C113.024 82.3862 112.737 83.6385 111.77 84.4782ZM109.333 83.6671C109.297 83.6471 109.259 83.6286 109.222 83.6106C109.117 83.5605 109.009 83.515 108.899 83.4716C108.833 83.8888 108.918 84.2886 109.176 84.5854C109.422 84.8691 109.784 85.0103 110.184 85.0159C110.158 84.8551 110.095 84.6508 110.095 84.6508C109.987 84.4364 109.995 84.3368 109.995 84.3368C109.98 84.2507 110.312 83.9795 110.312 83.9795C110.402 84.0533 110.754 83.7398 110.754 83.7398C110.755 83.8455 110.867 83.7574 110.867 83.7574C110.91 83.7252 110.999 83.6762 110.999 83.6762C111.301 83.5181 111.166 83.4833 111.166 83.4833C111.452 83.3195 111.644 83.1164 111.644 83.1164C111.739 83.0152 111.794 82.9035 111.798 82.7852C111.8 82.7453 111.795 82.7065 111.787 82.67C111.775 82.6204 111.768 82.5641 111.75 82.5177C111.736 82.4799 111.716 82.4452 111.694 82.4121C111.67 82.376 111.643 82.341 111.612 82.3105C111.586 82.2798 111.547 82.2877 111.547 82.2877C111.535 82.2901 111.491 82.2591 111.477 82.2551C111.453 82.2476 111.428 82.2416 111.403 82.2367C111.338 82.2241 111.268 82.2237 111.2 82.2183C111.148 82.2141 111.097 82.1942 111.039 82.2089C110.988 82.2217 110.938 82.2481 110.892 82.2785C110.839 82.3134 110.78 82.358 110.738 82.4066C110.689 82.4629 110.45 82.6901 110.45 82.6901C110.411 82.6109 110.316 82.756 110.316 82.756C110.303 82.7893 110.19 82.9186 110.19 82.9186C110.018 83.0965 110.152 83.099 110.152 83.099C109.812 83.3742 109.868 83.4728 109.868 83.4728C109.685 83.6514 109.55 83.7208 109.55 83.7208C109.461 83.7623 109.392 83.6995 109.333 83.6671Z" fill="url(#paint4_linear)"/>
<path fill-rule="evenodd" clip-rule="evenodd" d="M76.2714 12.1164C73.113 13.8888 70.3001 16.0292 66.8404 17.0657L67.4052 18.0653C69.5293 16.8216 72.6937 15.2871 76.8645 12.8769L76.2714 12.1164Z" fill="black"/>
<path fill-rule="evenodd" clip-rule="evenodd" d="M73.7938 15.1629C70.6693 16.5496 68.443 18.2314 67.4599 18.5367L68.0413 19.5218C70.764 17.5494 72.8575 16.5702 74.3592 15.9324L73.7938 15.1629Z" fill="black"/>
<path fill-rule="evenodd" clip-rule="evenodd" d="M74.346 16.46C71.2069 17.43 68.9989 19.3708 68.0251 19.8482L68.6099 20.8303C71.4676 18.4482 73.5396 17.5172 74.914 17.2269L74.346 16.46Z" fill="black"/>
<path fill-rule="evenodd" clip-rule="evenodd" d="M69.0525 37.3644C68.7432 41.7253 65.0229 42.8529 63.0305 45.7224L63.9091 46.5018C65.2672 44.5758 69.3011 42.5893 70.0618 38.0522L69.0525 37.3644Z" fill="black"/>
<path fill-rule="evenodd" clip-rule="evenodd" d="M69.3301 41.3602C67.4292 44.1841 65.0758 45.9279 64.5628 46.8234L65.4453 47.5983C67.3508 45.3886 69.3309 43.9398 70.3191 41.7596L69.3301 41.3602Z" fill="black"/>
<path fill-rule="evenodd" clip-rule="evenodd" d="M70.4596 42.6136C69.7385 44.4968 67.8602 45.72 65.9176 47.9357L66.8001 48.7105C70.0351 45.0596 70.5606 44.7364 71.5056 42.8999L70.4596 42.6136Z" fill="black"/>
<path fill-rule="evenodd" clip-rule="evenodd" d="M117.853 93.9779C114.714 92.1225 114.935 88.6777 113.377 85.9997L112.551 86.4287C113.591 88.2431 113.917 92.2592 117.058 94.547L117.853 93.9779Z" fill="black"/>
<path fill-rule="evenodd" clip-rule="evenodd" d="M114.631 92.6474C113.096 90.0487 112.491 87.4861 111.978 86.7349L111.148 87.1622C112.228 89.5352 112.723 91.6845 114.048 93.3015L114.631 92.6474Z" fill="black"/>
<path fill-rule="evenodd" clip-rule="evenodd" d="M113.239 93.0449C112.057 91.7529 111.704 89.7699 110.636 87.3622L109.803 87.7872C111.554 91.7822 111.638 92.3298 112.72 93.786L113.239 93.0449Z" fill="black"/>
<path fill-rule="evenodd" clip-rule="evenodd" d="M110.539 42.6095C108.502 43.9916 106.201 47.4465 105.186 50.6732L106.13 51.2124C106.937 48.9892 108.87 45.0456 111.159 43.5399L110.539 42.6095Z" fill="black"/>
<path fill-rule="evenodd" clip-rule="evenodd" d="M110.723 44.9426C109.536 45.7545 107.142 49.7741 106.964 51.2964L107.911 51.8302C108.605 49.5562 110.203 46.7682 111.486 45.7249L110.723 44.9426Z" fill="black"/>
<path fill-rule="evenodd" clip-rule="evenodd" d="M112.014 46.0892C110.992 47.0372 109.404 49.571 108.617 51.9407L109.563 52.4762C110.62 49.6823 111.989 47.9318 112.983 46.7608L112.014 46.0892Z" fill="black"/>
<defs>
<linearGradient id="paint0_linear" x1="64.9127" y1="22.2199" x2="63.0485" y2="18.8995" gradientUnits="userSpaceOnUse">
<stop stop-color="#BBBBBD"/>
<stop offset="1" stop-color="#66656A"/>
</linearGradient>
<linearGradient id="paint1_linear" x1="63.9738" y1="50.9411" x2="60.452" y2="48.7334" gradientUnits="userSpaceOnUse">
<stop stop-color="#BBBBBD"/>
<stop offset="1" stop-color="#66656A"/>
</linearGradient>
<linearGradient id="paint2_linear" x1="105.888" y1="37.5887" x2="107.929" y2="34.0025" gradientUnits="userSpaceOnUse">
<stop stop-color="#BBBBBD"/>
<stop offset="1" stop-color="#66656A"/>
</linearGradient>
<linearGradient id="paint3_linear" x1="108.021" y1="55.8671" x2="104.771" y2="53.9" gradientUnits="userSpaceOnUse">
<stop stop-color="#BBBBBD"/>
<stop offset="1" stop-color="#66656A"/>
</linearGradient>
<linearGradient id="paint4_linear" x1="108.91" y1="84.7221" x2="112.081" y2="81.9672" gradientUnits="userSpaceOnUse">
<stop stop-color="#BBBBBD"/>
<stop offset="1" stop-color="#66656A"/>
</linearGradient>
</defs>
</svg>
